<?xml version="1.0" standalone="no"?>
<!DOCTYPE svg PUBLIC "-//W3C//DTD SVG 20010904//EN"
 "http://www.w3.org/TR/2001/REC-SVG-20010904/DTD/svg10.dtd">
<svg version="1.0" xmlns="http://www.w3.org/2000/svg"
 width="600.000000pt" height="600.000000pt" viewBox="0 0 600.000000 600.000000"
 preserveAspectRatio="xMidYMid meet">

<g transform="translate(0.000000,600.000000) scale(0.100000,-0.100000)"
fill="#000000" stroke="none">
<path d="M2893 5980 c-18 -11 -33 -24 -33 -30 0 -5 -16 2 -36 15 -20 14 -48
25 -61 25 -30 0 -79 -25 -91 -46 -8 -14 -12 -13 -43 5 -19 12 -45 21 -59 21
-33 0 -87 -33 -95 -59 l-6 -21 -26 20 c-49 38 -140 16 -158 -39 -5 -18 -7 -18
-43 1 -54 28 -122 5 -142 -48 -10 -24 -10 -24 -41 -8 -43 22 -91 11 -123 -27
-14 -17 -26 -37 -26 -44 0 -12 -6 -12 -34 0 -54 23 -105 2 -133 -53 -12 -24
-24 -38 -28 -32 -3 5 -26 10 -51 10 -52 0 -91 -30 -100 -79 -5 -26 -9 -29 -25
-21 -54 29 -133 -12 -145 -75 -5 -30 -8 -32 -32 -26 -61 17 -132 -34 -132 -95
0 -17 -5 -20 -32 -16 -60 9 -118 -41 -118 -103 0 -21 -4 -24 -41 -23 -55 1
-102 -44 -103 -96 -1 -32 -4 -36 -29 -36 -36 0 -83 -24 -97 -49 -5 -11 -10
-35 -10 -54 0 -32 -2 -35 -39 -41 -54 -8 -94 -56 -89 -106 3 -36 2 -37 -40
-49 -55 -14 -85 -59 -77 -113 4 -30 2 -38 -10 -38 -26 0 -74 -29 -85 -51 -13
-24 -16 -65 -6 -97 6 -19 4 -22 -19 -22 -40 0 -85 -50 -85 -95 0 -20 5 -45 10
-56 9 -16 7 -19 -9 -19 -12 0 -35 -13 -53 -29 -26 -23 -32 -36 -32 -67 1 -22
4 -49 9 -61 6 -18 4 -23 -10 -23 -9 0 -30 -13 -46 -29 -33 -34 -40 -91 -13
-129 14 -20 14 -22 -1 -22 -9 0 -30 -13 -46 -29 -33 -34 -40 -91 -14 -128 14
-20 14 -23 -7 -34 -38 -19 -58 -51 -58 -95 0 -22 7 -49 15 -60 19 -26 19 -32
-5 -39 -25 -8 -50 -54 -50 -93 0 -16 9 -41 20 -55 l21 -26 -33 -30 c-27 -24
-33 -36 -33 -69 0 -26 8 -51 22 -69 l21 -29 -29 -32 c-38 -42 -39 -89 -3 -131
l26 -31 -26 -31 c-36 -42 -35 -89 3 -131 l29 -32 -21 -29 c-14 -18 -22 -43
-22 -69 0 -33 6 -45 33 -69 l33 -30 -21 -26 c-11 -14 -20 -39 -20 -55 0 -39
25 -85 50 -93 24 -7 24 -13 5 -39 -8 -11 -15 -38 -15 -60 0 -44 20 -76 58 -95
21 -11 21 -14 7 -34 -26 -37 -19 -94 14 -128 16 -16 37 -29 46 -29 15 0 15 -2
1 -22 -27 -38 -20 -95 13 -129 16 -16 37 -29 46 -29 14 0 16 -5 10 -22 -5 -13
-8 -40 -9 -62 0 -31 6 -44 32 -67 18 -16 41 -29 53 -29 16 0 18 -3 9 -19 -5
-11 -10 -36 -10 -56 0 -45 45 -95 85 -95 23 0 25 -3 19 -22 -10 -32 -7 -73 6
-97 11 -22 59 -51 83 -51 10 0 14 -12 13 -43 -1 -59 24 -94 77 -109 41 -11 42
-12 39 -48 -5 -50 35 -98 89 -106 37 -6 39 -8 39 -43 1 -57 47 -101 107 -101
25 0 28 -3 29 -36 1 -52 48 -97 103 -96 37 1 41 -2 41 -23 0 -62 58 -112 118
-103 27 4 32 1 32 -16 0 -61 71 -112 132 -95 24 6 27 4 32 -26 12 -63 91 -104
145 -75 16 8 20 5 25 -21 9 -49 48 -79 100 -79 25 0 48 5 51 10 4 6 16 -8 28
-32 28 -55 79 -76 131 -54 32 13 33 13 43 -15 12 -30 66 -69 96 -69 10 0 31 7
48 15 28 15 30 15 39 -9 20 -53 88 -76 142 -48 36 19 38 19 43 1 18 -55 109
-77 158 -39 l26 20 6 -21 c8 -26 62 -59 95 -59 14 0 40 9 59 21 31 18 35 19
43 5 12 -21 61 -46 91 -46 13 0 39 10 58 23 l33 22 22 -22 c43 -43 106 -42
149 1 l24 24 22 -24 c42 -45 113 -39 156 14 13 15 23 21 23 15 0 -18 53 -43
91 -43 22 0 41 10 64 33 32 32 32 32 61 15 42 -26 87 -23 123 8 17 14 31 32
31 41 0 11 6 10 26 -6 40 -31 98 -28 133 7 15 15 30 33 32 40 3 10 11 9 37 -4
57 -28 124 0 145 59 5 14 11 16 26 7 40 -21 91 -12 125 23 18 17 35 38 37 45
3 10 11 11 33 2 54 -20 136 29 136 82 0 16 4 18 18 12 9 -4 34 -8 54 -8 45 0
98 44 98 82 0 22 3 23 39 17 27 -4 49 -2 70 9 30 16 61 61 61 90 0 12 7 14 30
10 60 -12 120 35 122 94 1 25 4 27 45 27 38 0 49 5 74 33 20 22 29 43 29 66 0
29 3 33 20 29 56 -15 120 38 120 98 0 35 3 39 25 39 65 0 124 68 109 125 -6
23 -3 25 29 25 58 0 108 65 93 124 -5 21 -2 25 28 30 21 4 45 19 61 38 23 27
26 39 22 75 -4 40 -3 42 24 48 16 4 40 21 55 38 22 26 25 38 22 78 -4 43 -3
48 17 53 41 10 75 55 75 98 0 22 -5 48 -10 59 -9 16 -7 19 10 19 12 0 35 14
52 30 26 26 29 36 26 73 -3 23 -8 50 -12 60 -6 12 -4 17 9 17 9 0 30 13 46 29
33 33 40 92 15 126 -12 17 -10 21 18 40 17 11 37 32 44 45 15 30 9 86 -13 110
-15 17 -15 19 4 25 55 17 80 109 43 155 -18 22 -17 23 15 55 26 26 33 41 33
73 0 24 -7 49 -19 63 -19 24 -19 24 10 57 37 42 40 98 6 138 l-23 26 28 28
c22 22 28 38 28 70 0 32 -6 48 -28 70 l-28 28 23 26 c34 40 31 96 -6 138 -29
33 -29 33 -10 57 12 14 19 39 19 63 0 32 -7 47 -33 73 -32 32 -33 33 -15 55
37 46 12 138 -43 155 -19 6 -19 8 -4 25 22 24 28 80 13 110 -7 13 -27 34 -44
45 -28 19 -30 23 -18 40 25 34 18 93 -15 126 -16 16 -37 29 -46 29 -13 0 -15
5 -9 18 4 9 9 36 12 59 3 37 0 47 -26 73 -17 16 -40 30 -52 30 -17 0 -19 3
-10 19 5 11 10 37 10 59 0 43 -34 88 -75 98 -20 5 -21 10 -17 53 3 40 0 52
-22 78 -15 17 -39 34 -55 38 -27 6 -28 8 -24 48 4 36 1 48 -22 75 -16 19 -40
34 -61 38 -30 5 -33 9 -28 30 15 59 -35 124 -93 124 -32 0 -35 2 -29 25 7 28
-13 83 -37 103 -9 8 -34 16 -57 19 -39 5 -40 7 -40 43 0 61 -63 112 -120 97
-17 -4 -20 0 -20 29 0 23 -9 44 -29 66 -25 28 -36 33 -74 33 -41 0 -44 2 -45
27 -2 59 -62 106 -122 94 -23 -4 -30 -2 -30 10 0 58 -68 110 -132 100 -35 -6
-38 -4 -38 17 0 37 -53 81 -98 81 -20 0 -45 -4 -54 -8 -14 -6 -18 -4 -18 12 0
53 -82 102 -136 82 -22 -9 -30 -8 -33 2 -2 7 -19 28 -37 46 -34 34 -85 43
-125 22 -15 -9 -21 -7 -26 7 -21 59 -88 87 -145 59 -26 -13 -34 -14 -37 -4 -2
7 -17 25 -32 40 -35 35 -93 38 -133 7 -20 -16 -26 -17 -26 -6 0 9 -14 27 -31
41 -36 31 -81 34 -123 8 -29 -17 -29 -17 -61 15 -23 23 -42 33 -64 33 -37 0
-91 -25 -91 -43 0 -6 -10 0 -21 15 -23 31 -79 52 -111 43 -13 -4 -35 -19 -50
-33 -16 -14 -28 -20 -28 -14 0 17 -60 52 -90 52 -14 0 -40 -9 -57 -20z m-75
-43 c40 -37 26 -105 -28 -127 -79 -33 -150 70 -87 127 41 38 73 38 115 0z
m189 11 c44 -41 22 -120 -36 -133 -77 -17 -129 67 -80 129 27 34 82 36 116 4z
m190 0 c33 -31 32 -90 -3 -117 -36 -28 -79 -27 -109 4 -73 73 37 184 112 113z
m172 -3 c64 -33 53 -129 -17 -149 -27 -7 -38 -6 -60 11 -56 41 -52 110 8 140
32 16 35 16 69 -2z m-740 -31 c28 -36 27 -79 -4 -109 -73 -73 -184 37 -113
112 31 33 90 32 117 -3z m954 -15 c19 -23 22 -70 7 -99 -13 -25 -65 -41 -94
-30 -30 11 -56 47 -56 78 0 13 14 37 30 54 26 25 36 29 63 24 18 -3 40 -16 50
-27z m-1140 -20 c43 -52 5 -129 -64 -129 -44 0 -79 36 -79 79 1 71 97 105 143
50z m1300 -1 c90 -47 34 -183 -60 -147 -68 26 -72 110 -8 147 26 15 41 15 68
0z m-1504 -28 c10 -5 24 -23 31 -40 34 -82 -69 -150 -130 -85 -63 67 18 169
99 125z m886 -66 c32 -6 86 13 99 35 4 5 19 -4 35 -20 23 -23 38 -29 71 -29
22 0 51 7 64 15 22 15 25 14 54 -15 35 -34 92 -41 129 -15 20 14 24 12 56 -20
28 -28 43 -35 74 -35 22 0 48 6 58 14 18 13 21 11 37 -16 10 -16 34 -36 53
-44 29 -12 40 -12 74 0 38 13 40 12 46 -11 11 -46 103 -80 145 -53 11 7 18 2
30 -22 22 -47 73 -73 119 -62 35 9 36 8 53 -29 20 -44 73 -72 119 -62 25 6 30
3 43 -29 19 -45 59 -71 107 -69 29 2 39 -2 39 -13 0 -53 74 -111 125 -98 21 5
25 3 25 -15 0 -59 72 -121 121 -106 15 5 19 1 19 -19 0 -60 46 -108 104 -108
29 0 31 -2 32 -40 0 -33 6 -46 32 -69 20 -18 44 -29 61 -29 27 0 29 -3 28 -34
-2 -61 46 -116 100 -116 15 0 18 -7 15 -43 -4 -51 22 -90 71 -106 31 -10 32
-13 29 -51 -5 -49 16 -85 63 -107 30 -14 33 -19 28 -49 -10 -59 34 -124 83
-124 12 0 14 -5 8 -17 -5 -10 -8 -37 -8 -60 -1 -45 22 -79 62 -94 19 -7 21
-12 12 -28 -20 -38 -12 -91 18 -120 15 -15 33 -30 40 -32 10 -3 10 -12 -3 -43
-20 -48 -7 -97 35 -128 27 -19 28 -23 15 -42 -8 -11 -15 -38 -15 -60 0 -31 7
-45 35 -71 29 -28 32 -35 20 -45 -37 -30 -26 -124 18 -155 19 -14 19 -14 -2
-41 -31 -40 -28 -98 7 -132 l27 -27 -21 -23 c-39 -41 -38 -106 0 -143 l22 -21
-28 -28 c-35 -36 -38 -94 -7 -134 21 -27 21 -27 2 -41 -43 -30 -55 -125 -19
-154 11 -9 7 -18 -20 -45 -27 -27 -34 -42 -34 -73 0 -21 7 -48 15 -59 13 -19
12 -23 -15 -42 -42 -31 -55 -80 -35 -128 13 -31 13 -40 3 -43 -7 -2 -25 -17
-40 -32 -30 -29 -38 -82 -18 -120 9 -16 7 -21 -12 -28 -40 -15 -63 -49 -62
-94 0 -23 3 -50 8 -60 6 -12 4 -17 -8 -17 -49 0 -93 -65 -83 -124 5 -30 2 -35
-28 -49 -47 -22 -68 -58 -63 -107 3 -38 2 -41 -29 -51 -49 -16 -75 -55 -71
-106 3 -38 1 -43 -17 -43 -11 0 -34 -9 -52 -20 -34 -20 -56 -73 -46 -110 5
-17 1 -20 -26 -20 -20 0 -42 -10 -63 -29 -26 -23 -32 -36 -32 -69 -1 -38 -3
-40 -32 -40 -58 0 -104 -48 -104 -108 0 -20 -4 -24 -19 -19 -49 15 -121 -47
-121 -106 0 -18 -4 -20 -25 -15 -51 13 -125 -45 -125 -97 0 -10 -13 -14 -45
-14 -36 0 -51 -5 -75 -28 -16 -15 -30 -37 -32 -49 -3 -18 -10 -21 -49 -21 -56
-1 -94 -24 -110 -68 -11 -33 -13 -33 -49 -24 -31 9 -43 7 -71 -9 -19 -11 -41
-34 -49 -52 -12 -24 -19 -29 -30 -22 -42 27 -134 -7 -145 -53 -6 -23 -8 -24
-46 -11 -34 12 -45 12 -74 0 -19 -8 -43 -28 -53 -44 -16 -27 -19 -29 -37 -16
-10 8 -36 14 -58 14 -31 0 -46 -7 -74 -35 -32 -32 -36 -34 -56 -20 -37 26 -94
19 -129 -15 -29 -29 -32 -30 -54 -15 -13 8 -42 15 -64 15 -33 0 -48 -6 -71
-29 -16 -16 -31 -25 -35 -20 -3 5 -19 16 -36 25 -39 20 -88 12 -120 -21 l-25
-25 -23 25 c-31 33 -95 34 -134 4 l-26 -21 -31 26 c-38 32 -95 35 -131 7 l-24
-20 -27 29 c-37 39 -78 47 -123 23 l-36 -19 -33 33 c-37 37 -80 43 -126 19
-25 -13 -28 -11 -53 20 -32 40 -81 53 -124 31 -29 -14 -30 -13 -41 9 -12 27
-67 64 -94 64 -10 0 -31 -7 -47 -15 -28 -14 -30 -14 -30 3 0 24 -48 69 -82 77
-15 4 -41 2 -58 -3 -25 -9 -30 -8 -30 5 0 8 -16 31 -35 50 -34 34 -38 35 -85
30 -46 -6 -50 -4 -50 14 0 11 -13 34 -29 50 -24 24 -38 29 -76 29 -35 0 -47 4
-51 18 -21 65 -65 98 -120 89 -29 -5 -34 -3 -34 14 0 53 -48 98 -102 99 -32 0
-38 4 -38 20 0 55 -57 110 -115 110 -20 0 -25 5 -25 26 0 56 -49 104 -105 104
-22 0 -25 4 -25 39 0 49 -29 87 -80 102 -34 10 -39 15 -34 35 12 48 -52 124
-104 124 -7 0 -9 14 -5 34 9 54 -25 99 -88 119 -13 4 -16 15 -12 51 5 42 3 48
-30 81 -19 19 -43 35 -52 35 -13 0 -15 5 -9 17 24 52 -4 125 -56 147 -22 9
-27 15 -20 26 19 30 11 87 -16 119 -14 17 -33 31 -41 31 -12 0 -13 6 -7 23 4
12 8 42 8 66 0 35 -5 48 -26 66 -15 13 -32 25 -39 27 -10 3 -9 10 4 28 31 44
16 115 -30 145 -22 15 -22 17 -8 38 8 12 15 40 15 63 0 34 -6 49 -31 74 -29
29 -30 32 -15 49 36 39 27 113 -18 150 -14 12 -14 16 4 38 27 35 27 102 -1
137 l-20 26 20 26 c28 35 28 102 1 137 -18 22 -18 26 -4 38 45 37 54 111 18
150 -15 17 -14 20 15 49 25 25 31 40 31 74 0 23 -7 51 -15 63 -14 21 -14 23 8
38 46 30 61 101 30 145 -13 18 -14 25 -4 28 7 2 24 14 39 27 21 18 26 31 26
66 0 24 -4 54 -8 67 -6 16 -5 22 7 22 8 0 27 14 41 31 27 32 35 89 16 119 -7
11 -2 17 20 26 52 22 80 95 56 147 -6 12 -4 17 9 17 9 0 33 16 52 35 33 33 35
39 30 81 -4 36 -1 47 12 51 63 20 97 65 88 119 -4 20 -2 34 5 34 52 0 116 76
104 124 -5 20 0 25 34 35 51 15 80 53 80 102 0 35 3 39 25 39 56 0 105 48 105
104 0 22 5 26 28 26 48 0 91 35 104 85 11 43 14 45 48 45 52 1 100 47 100 99
0 17 5 19 34 14 55 -9 99 24 120 90 4 13 16 17 51 17 38 0 52 5 76 29 16 16
29 39 29 50 0 18 4 20 50 14 47 -5 51 -4 85 30 19 19 35 42 35 50 0 13 5 14
30 5 17 -5 43 -7 58 -3 34 8 82 53 82 77 0 17 2 17 30 3 16 -8 37 -15 47 -15
28 0 82 37 95 65 10 23 12 24 41 9 43 -23 91 -11 123 30 25 31 28 33 53 20 46
-24 89 -18 126 19 l33 33 34 -18 c44 -23 90 -15 125 23 l27 28 24 -20 c36 -28
93 -25 131 7 l31 26 26 -21 c39 -30 103 -29 134 4 l23 25 25 -25 c13 -13 39
-27 57 -31z m825 26 c31 -31 27 -93 -6 -119 -37 -29 -70 -26 -105 8 -36 36
-37 73 -4 106 31 32 86 34 115 5z m-1890 -20 c28 -15 43 -67 27 -98 -29 -61
-98 -66 -140 -10 -49 65 37 148 113 108z m2064 -41 c33 -26 37 -88 6 -119 -31
-31 -93 -27 -119 6 -29 37 -26 70 8 105 35 34 68 37 105 8z m-2245 -29 c31
-16 46 -65 31 -100 -34 -81 -150 -59 -150 29 0 63 64 101 119 71z m2426 -55
c73 -72 -28 -178 -109 -114 -20 16 -26 29 -26 59 0 72 84 106 135 55z m-2597
-31 c32 -22 43 -57 31 -94 -12 -34 -35 -50 -73 -50 -38 0 -55 10 -71 41 -21
40 -19 57 14 90 33 32 65 37 99 13z m2767 -59 c32 -31 32 -74 0 -109 -48 -52
-135 -17 -135 55 0 72 84 106 135 54z m-2917 -51 c31 -35 28 -70 -8 -106 -26
-25 -36 -29 -63 -24 -78 15 -94 121 -23 152 38 16 64 10 94 -22z m3082 -46
c28 -31 26 -83 -5 -113 -50 -51 -135 -11 -135 64 0 10 9 30 21 45 27 34 88 37
119 4z m-3265 -34 c25 -10 47 -62 40 -95 -20 -91 -155 -72 -155 22 0 58 58 95
115 73z m3424 -80 c28 -35 26 -75 -4 -108 -48 -52 -135 -17 -135 55 0 74 95
109 139 53z m-3584 -34 c30 -11 54 -60 47 -95 -6 -35 -38 -59 -79 -59 -88 0
-110 121 -28 154 27 12 30 12 60 0z m3730 -85 c33 -33 32 -70 -4 -106 -35 -34
-68 -37 -105 -8 -33 26 -37 88 -6 119 29 29 84 27 115 -5z m-3850 -60 c52 -51
15 -135 -59 -135 -42 0 -76 37 -76 82 0 39 40 78 80 78 19 0 40 -9 55 -25z
m3994 -71 c29 -37 26 -70 -8 -105 -36 -36 -73 -37 -106 -4 -32 31 -34 86 -5
115 31 31 93 27 119 -6z m-4150 -49 c67 -34 51 -132 -25 -151 -32 -8 -75 21
-89 60 -11 33 8 75 45 93 32 16 35 16 69 -2z m4279 -88 c54 -50 -2 -151 -74
-133 -60 15 -85 93 -41 133 41 38 73 38 115 0z m-4403 -53 c24 -10 46 -60 39
-89 -8 -31 -49 -65 -79 -65 -30 0 -71 34 -79 65 -7 27 15 80 36 88 19 8 64 8
83 1z m4519 -85 c19 -15 26 -29 26 -57 0 -75 -83 -110 -135 -57 -71 70 30 176
109 114z m-4619 -84 c73 -72 -28 -178 -109 -114 -19 15 -26 29 -26 57 0 75 83
110 135 57z m4720 -61 c24 -10 46 -60 39 -89 -8 -31 -49 -65 -80 -65 -39 0
-78 42 -78 85 0 58 58 92 119 69z m-4828 -96 c67 -63 -13 -167 -95 -124 -47
25 -56 75 -21 120 27 34 82 36 116 4z m4940 -73 c44 -31 37 -111 -13 -134 -36
-16 -58 -14 -88 10 -54 43 -21 139 49 139 17 0 40 -7 52 -15z m-5043 -86 c20
-16 26 -29 26 -60 0 -50 -27 -79 -74 -79 -43 0 -74 26 -82 67 -5 27 -1 37 24
63 36 35 69 38 106 9z m5145 -95 c62 -79 -44 -180 -114 -109 -53 52 -18 135
56 135 29 0 42 -6 58 -26z m-5246 -65 c48 -22 60 -83 25 -123 -50 -55 -138
-26 -138 45 0 69 53 105 113 78z m5322 -104 c73 -73 -37 -184 -112 -113 -50
47 -12 138 57 138 19 0 40 -9 55 -25z m-5387 -81 c64 -44 36 -143 -40 -144
-40 0 -57 9 -74 42 -39 75 46 150 114 102z m5441 -84 c31 -16 46 -65 31 -100
-34 -81 -150 -59 -150 29 0 63 64 101 119 71z m-5495 -101 c19 -15 26 -29 26
-57 0 -75 -83 -110 -135 -57 -73 72 28 178 109 114z m5569 -100 c23 -29 22
-84 -3 -109 -33 -33 -85 -30 -117 6 -32 35 -29 70 7 106 26 25 36 29 63 24 18
-3 40 -16 50 -27z m-5642 -69 c21 0 49 -42 49 -74 0 -43 -26 -74 -67 -82 -27
-5 -37 -1 -63 24 -16 17 -30 41 -30 54 0 45 53 94 88 82 8 -2 18 -4 23 -4z
m5668 -100 c31 -16 46 -65 31 -100 -34 -81 -150 -59 -150 29 0 63 64 101 119
71z m-5674 -110 c47 -47 9 -134 -59 -134 -61 0 -100 58 -74 112 26 53 90 63
133 22z m5720 -95 c29 -28 31 -54 10 -94 -37 -72 -145 -42 -145 40 0 72 84
106 135 54z m-5766 -80 c46 -24 55 -74 20 -119 -42 -53 -139 -21 -139 46 0 71
57 106 119 73z m5778 -100 c44 -31 37 -111 -13 -134 -36 -16 -58 -14 -88 10
-54 43 -21 139 49 139 17 0 40 -7 52 -15z m-5769 -111 c27 -31 28 -63 2 -97
-59 -75 -172 -7 -134 81 23 57 88 64 132 16z m5779 -86 c33 -31 32 -90 -3
-117 -62 -49 -146 3 -129 80 13 57 88 79 132 37z m-5779 -104 c27 -31 28 -63
2 -97 -39 -50 -110 -42 -134 15 -37 88 68 153 132 82z m5763 -77 c65 -50 36
-147 -45 -147 -71 0 -105 96 -50 139 30 23 71 27 95 8z m-5752 -113 c35 -45
26 -95 -21 -120 -58 -30 -118 6 -118 70 0 71 96 105 139 50z m5746 -89 c73
-73 -37 -184 -112 -113 -33 31 -32 90 3 117 36 28 79 27 109 -4z m-5720 -96
c27 -26 25 -83 -3 -111 -50 -50 -136 -14 -136 56 0 75 83 108 139 55z m5674
-79 c31 -16 46 -65 31 -100 -34 -81 -150 -59 -150 29 0 63 64 101 119 71z
m-5636 -111 c19 -23 22 -70 7 -99 -13 -25 -65 -41 -94 -30 -30 11 -56 47 -56
78 0 13 14 37 30 54 26 25 36 29 63 24 18 -3 40 -16 50 -27z m5617 -99 c28
-52 -1 -115 -57 -126 -27 -5 -37 -1 -63 24 -17 17 -30 41 -30 55 0 31 34 75
63 79 32 5 76 -11 87 -32z m-5573 -82 c33 -31 32 -90 -3 -117 -36 -28 -79 -27
-109 4 -73 73 37 184 112 113z m5492 -78 c31 -16 46 -65 31 -100 -22 -53 -77
-66 -124 -29 -53 42 -21 139 46 139 16 0 37 -4 47 -10z m-5437 -94 c23 -17 39
-61 31 -83 -29 -83 -138 -81 -159 1 -6 26 17 81 38 89 25 10 73 6 90 -7z
m5383 -101 c50 -49 15 -135 -55 -135 -42 0 -80 39 -80 81 0 72 84 106 135 54z
m-5295 -93 c48 -61 -8 -145 -84 -126 -69 17 -78 121 -14 149 39 16 74 8 98
-23z m5193 -63 c47 -21 60 -80 26 -123 -15 -19 -29 -26 -57 -26 -75 0 -110 83
-57 135 26 27 51 31 88 14z m-5113 -99 c31 -31 27 -93 -6 -119 -37 -29 -70
-26 -106 9 -25 26 -29 36 -24 63 3 18 16 40 27 50 29 23 84 22 109 -3z m5031
-73 c65 -50 36 -147 -45 -147 -71 0 -105 96 -50 139 30 23 71 27 95 8z m-4928
-98 c43 -52 5 -129 -64 -129 -44 0 -79 35 -79 79 0 71 97 105 143 50z m4830
-69 c33 -26 41 -63 23 -99 -16 -31 -34 -41 -71 -41 -13 0 -31 3 -40 6 -24 10
-46 60 -39 89 8 31 49 65 79 65 12 0 34 -9 48 -20z m-4728 -85 c73 -73 -37
-184 -112 -113 -33 31 -32 90 3 117 36 28 79 27 109 -4z m4622 -77 c33 -31 32
-90 -3 -117 -37 -29 -70 -26 -105 8 -36 36 -37 73 -4 106 31 32 80 33 112 3z
m-4514 -68 c33 -26 41 -63 23 -99 -16 -31 -34 -41 -71 -41 -13 0 -31 3 -40 6
-24 10 -46 60 -39 89 8 31 49 65 79 65 12 0 34 -9 48 -20z m4376 -65 c72 -37
43 -148 -39 -148 -84 0 -109 108 -35 151 27 15 41 15 74 -3z m-4236 -86 c32
-40 21 -101 -24 -125 -36 -18 -73 -10 -99 23 -28 36 -25 70 10 105 26 25 36
29 63 24 18 -3 40 -16 50 -27z m4118 -68 c34 -35 37 -68 8 -105 -15 -19 -29
-26 -57 -26 -75 0 -110 83 -57 135 33 33 70 32 106 -4z m-3986 -66 c33 -32 33
-78 0 -110 -72 -73 -178 28 -114 109 28 35 80 36 114 1z m3828 -46 c49 -22 61
-86 22 -124 -52 -53 -135 -18 -135 56 0 61 55 94 113 68z m-3682 -75 c56 -51
-3 -160 -75 -138 -54 17 -80 76 -51 120 29 45 87 53 126 18z m3554 -59 c50
-49 17 -135 -53 -135 -48 0 -82 32 -82 77 0 44 37 83 80 83 19 0 40 -9 55 -25z
m-3408 -50 c29 -21 38 -66 19 -103 -37 -72 -146 -46 -146 36 0 68 71 106 127
67z m3248 -60 c51 -50 18 -135 -52 -135 -39 0 -83 37 -83 69 0 77 84 118 135
66z m-3084 -54 c32 -33 37 -65 13 -99 -22 -32 -57 -43 -94 -31 -34 12 -50 35
-50 74 0 78 76 110 131 56z m2924 -46 c73 -73 -37 -184 -112 -113 -50 47 -12
138 57 138 19 0 40 -9 55 -25z m-2765 -35 c28 -15 43 -67 27 -98 -29 -61 -98
-66 -140 -10 -49 65 37 148 113 108z m2595 -55 c50 -49 15 -135 -55 -135 -72
0 -109 96 -54 139 36 28 79 27 109 -4z m-2418 -30 c29 -21 38 -66 19 -103 -37
-72 -146 -46 -146 36 0 68 71 106 127 67z m2243 -45 c31 -31 27 -93 -6 -119
-37 -29 -70 -26 -105 8 -34 35 -37 68 -8 105 26 33 88 37 119 6z m-2072 -26
c32 -22 43 -57 31 -94 -12 -34 -35 -50 -73 -50 -38 0 -55 10 -71 41 -21 40
-19 57 14 90 33 32 65 37 99 13z m1886 -35 c33 -26 37 -88 6 -119 -29 -29 -84
-27 -115 5 -33 33 -32 70 4 106 35 34 68 37 105 8z m-1696 -29 c30 -28 36 -62
18 -98 -26 -50 -87 -58 -126 -17 -68 73 35 183 108 115z m1495 -12 c50 -26 63
-87 27 -126 -52 -56 -139 -23 -139 53 0 33 13 55 44 73 26 15 41 15 68 0z
m-1306 -40 c44 -41 22 -120 -36 -133 -77 -17 -129 67 -80 129 27 34 82 36 116
4z m1122 -3 c68 -35 51 -136 -26 -151 -27 -5 -37 -1 -63 24 -16 17 -30 41 -30
54 0 30 26 67 54 78 29 12 33 12 65 -5z m-934 -30 c50 -49 17 -135 -53 -135
-48 0 -82 32 -82 77 0 44 37 83 80 83 19 0 40 -9 55 -25z m740 5 c14 -5 32
-24 39 -42 38 -90 -82 -157 -138 -76 -24 34 -19 66 13 99 32 31 45 34 86 19z
m-566 -15 c72 -37 43 -148 -39 -148 -84 0 -110 111 -35 151 27 15 41 15 74 -3z
m214 -26 c43 -52 5 -129 -64 -129 -44 0 -79 35 -79 79 0 71 97 105 143 50z
m181 10 c19 -15 26 -29 26 -57 0 -75 -83 -110 -135 -57 -73 72 28 178 109 114z"/>
<path d="M2803 5679 c-74 -22 -122 -107 -109 -193 28 -187 295 -177 314 13 11
120 -95 214 -205 180z m86 -58 c43 -43 52 -161 15 -202 -26 -29 -81 -22 -107
13 -16 21 -21 44 -21 94 -1 60 1 68 27 90 34 29 60 31 86 5z"/>
<path d="M3139 5651 c-53 -54 -37 -102 57 -172 42 -31 54 -46 52 -62 -7 -49
-94 -23 -100 30 -2 20 -9 29 -25 31 -22 3 -23 0 -23 -62 l0 -65 33 -2 c120 -5
135 -4 157 16 61 55 46 112 -45 178 -65 47 -80 72 -48 84 26 10 67 -19 73 -52
4 -22 11 -30 25 -30 17 0 20 8 23 59 3 60 -10 85 -33 66 -6 -5 -17 -5 -25 0
-8 6 -32 10 -53 10 -29 0 -46 -7 -68 -29z"/>
<path d="M2367 5611 c-58 -13 -67 -18 -65 -36 2 -14 9 -19 25 -17 19 3 23 -7
47 -108 31 -132 31 -126 6 -133 -13 -3 -18 -10 -14 -21 3 -9 10 -16 16 -16 10
0 232 50 234 53 1 1 5 28 9 60 7 53 6 57 -13 57 -14 0 -22 -9 -27 -29 -8 -38
-25 -52 -73 -58 l-40 -5 -21 92 c-22 97 -26 130 -13 130 18 1 32 18 26 33 -7
20 -7 20 -97 -2z"/>
<path d="M3658 5463 c-61 -77 -101 -119 -116 -121 -14 -2 -22 -10 -22 -22 0
-14 11 -22 43 -30 23 -6 50 -13 59 -16 22 -6 29 27 8 43 -13 10 -13 13 3 31
15 17 23 18 62 9 40 -9 45 -13 45 -39 0 -18 -5 -28 -15 -28 -8 0 -15 -9 -15
-20 0 -14 10 -22 38 -29 83 -23 99 -24 105 -7 4 10 1 19 -7 22 -20 8 -23 18
-41 156 -20 158 -23 168 -39 168 -8 0 -56 -53 -108 -117z m72 -38 c0 -27 -6
-30 -29 -16 -12 8 -12 12 -2 25 19 23 31 20 31 -9z"/>
<path d="M1902 5453 c-75 -34 -102 -50 -100 -62 2 -9 13 -16 27 -16 20 0 30
-14 69 -104 42 -95 45 -104 29 -116 -16 -12 -14 -45 3 -45 4 0 37 13 73 30 52
24 64 33 60 48 -3 14 -11 18 -28 14 -20 -3 -27 2 -39 33 -21 48 -20 52 6 61
14 4 25 1 33 -9 8 -11 16 -12 28 -6 15 9 14 14 -8 66 -29 66 -29 63 -10 63 8
0 15 4 15 10 0 19 -34 80 -44 80 -6 0 -57 -21 -114 -47z m114 -34 c4 -7 0 -16
-9 -20 -8 -5 -13 -17 -10 -27 3 -12 -4 -22 -20 -29 -22 -10 -26 -8 -41 24 -9
20 -16 37 -14 38 32 25 82 32 94 14z"/>
<path d="M3994 5476 c-3 -8 4 -24 15 -35 24 -24 26 -14 -39 -158 -26 -59 -36
-72 -53 -70 -13 1 -23 -5 -25 -14 -4 -23 104 -67 121 -50 9 10 8 15 -7 26 -18
14 -18 16 9 80 15 36 31 65 34 65 3 0 19 -48 35 -108 32 -120 41 -142 59 -142
7 0 37 57 67 126 49 112 57 125 77 121 19 -3 33 9 33 29 0 9 -112 54 -121 48
-13 -8 -11 -25 6 -38 12 -9 10 -20 -14 -75 -16 -35 -31 -59 -33 -55 -3 5 -18
57 -33 117 l-28 107 -45 20 c-53 24 -51 24 -58 6z"/>
<path d="M2936 5325 c-14 -13 -26 -31 -26 -39 0 -33 -102 -52 -114 -21 -8 21
-52 19 -68 -4 -20 -28 -75 -37 -98 -16 -24 21 -66 13 -75 -14 -7 -23 -70 -38
-90 -21 -21 17 -59 8 -70 -17 -10 -24 -77 -47 -93 -31 -5 5 -22 8 -38 6 -21
-2 -30 -9 -32 -24 -4 -25 -74 -58 -90 -42 -16 16 -56 4 -69 -21 -16 -34 -52
-51 -91 -44 -36 6 -62 -9 -62 -38 0 -25 -54 -52 -89 -44 -32 7 -61 -14 -61
-45 0 -25 -59 -61 -80 -50 -24 13 -60 -15 -60 -45 0 -30 -43 -61 -77 -57 -32
5 -53 -15 -53 -49 0 -31 -37 -63 -75 -65 -79 -3 -75 0 -75 -53 0 -33 -6 -56
-20 -74 -20 -25 -22 -25 -56 -11 -19 8 -45 12 -57 8 -65 -19 -95 -95 -58 -145
l22 -29 -31 -45 c-18 -26 -36 -42 -44 -39 -23 9 -49 -26 -42 -57 7 -39 -22
-89 -52 -89 -29 0 -51 -42 -33 -64 15 -18 -15 -86 -39 -86 -33 0 -54 -51 -31
-75 15 -16 -18 -83 -42 -87 -16 -2 -23 -11 -25 -32 -2 -16 1 -33 6 -38 16 -16
-9 -88 -30 -88 -27 0 -39 -40 -22 -67 19 -30 8 -78 -22 -98 -25 -16 -33 -58
-14 -70 6 -3 10 -23 10 -44 0 -30 -6 -42 -25 -55 -28 -18 -32 -47 -10 -66 23
-19 20 -87 -5 -100 -24 -13 -28 -68 -5 -76 17 -7 22 -94 5 -94 -5 0 -14 -9
-20 -19 -8 -16 -5 -26 15 -49 28 -34 33 -83 10 -102 -21 -18 -19 -56 5 -73 22
-16 42 -117 23 -117 -6 0 -22 -12 -37 -26 -54 -55 -23 -148 54 -160 36 -6 39
-9 53 -58 8 -29 11 -55 6 -60 -5 -6 -9 -23 -9 -38 0 -21 6 -29 24 -34 27 -6
60 -76 44 -92 -16 -16 -4 -56 21 -69 34 -16 51 -52 44 -91 -6 -36 9 -62 38
-62 25 0 50 -51 43 -88 -7 -32 15 -62 46 -62 25 0 61 -59 50 -80 -13 -24 15
-60 45 -60 30 0 61 -43 57 -80 -4 -32 20 -54 48 -47 23 6 72 -47 63 -69 -9
-23 16 -54 45 -54 32 -1 86 -45 79 -64 -3 -8 1 -24 10 -36 12 -16 22 -21 42
-17 28 6 83 -32 80 -55 -5 -39 27 -67 58 -49 21 11 85 -33 77 -53 -8 -22 26
-48 55 -42 16 3 42 -3 69 -17 38 -20 42 -25 42 -60 0 -80 91 -125 154 -76 l27
21 54 -22 c39 -16 55 -28 57 -43 2 -16 11 -23 32 -25 16 -2 33 1 38 6 17 17
86 -9 93 -35 4 -17 12 -23 33 -23 15 0 33 5 38 10 16 16 72 0 89 -26 17 -26
56 -32 73 -11 18 21 78 9 97 -19 18 -27 47 -31 65 -9 19 23 87 20 100 -5 13
-24 52 -26 70 -5 17 20 96 20 104 0 8 -21 50 -19 71 5 22 24 77 27 95 5 17
-21 56 -19 72 3 21 30 66 36 105 15 l34 -18 23 26 c27 31 80 46 101 29 21 -17
59 -8 70 17 10 25 77 47 93 31 16 -16 56 -4 67 19 5 13 29 30 60 41 49 19 51
19 74 1 56 -44 151 0 151 70 0 25 7 34 45 56 33 20 52 25 74 20 32 -7 61 14
61 45 0 24 48 54 84 52 35 -3 56 13 56 44 0 29 44 60 77 56 32 -5 53 15 53 49
0 19 9 34 30 49 16 12 34 19 40 15 19 -12 50 15 50 43 1 35 42 82 73 82 31 0
51 23 44 52 -8 31 33 78 67 78 30 0 51 32 37 57 -7 13 -2 26 16 50 14 18 28
31 32 28 4 -2 18 3 30 12 18 12 22 22 17 44 -7 38 21 86 55 93 31 6 47 40 29
60 -16 20 16 83 46 90 26 7 42 49 26 69 -14 17 13 80 41 92 23 11 35 51 19 67
-16 16 20 122 43 127 53 10 93 68 81 117 -4 14 -18 37 -31 50 -21 21 -24 31
-18 69 4 31 13 49 29 60 27 18 31 47 9 65 -22 18 -19 82 5 103 24 20 26 50 5
71 -8 8 -15 32 -15 54 0 26 5 42 15 46 21 8 19 50 -5 71 -24 22 -27 77 -5 95
21 17 19 56 -3 72 -30 21 -36 66 -15 105 l18 34 -26 23 c-31 27 -46 80 -29
101 17 21 8 59 -17 70 -23 10 -48 81 -32 91 5 3 9 18 9 34 0 23 -6 31 -24 36
-27 6 -60 76 -44 92 16 16 4 56 -21 69 -34 16 -51 52 -44 91 6 36 -9 62 -38
62 -25 0 -52 54 -44 89 7 32 -14 61 -45 61 -11 0 -31 20 -50 49 -25 41 -29 54
-21 70 6 11 11 36 11 56 0 62 -71 111 -125 87 -22 -10 -27 -8 -50 22 -18 24
-25 45 -25 79 l0 47 -47 0 c-56 1 -83 17 -83 52 0 32 -23 52 -52 45 -31 -8
-78 33 -78 67 0 29 -27 48 -58 39 -28 -7 -77 29 -79 58 -2 29 -21 41 -55 35
-38 -7 -85 22 -92 55 -6 31 -36 45 -63 31 -25 -14 -77 14 -90 49 -11 30 -47
40 -68 20 -17 -16 -82 17 -89 45 -5 18 -13 24 -36 24 -16 0 -31 -4 -34 -9 -10
-15 -82 11 -92 33 -10 24 -48 33 -68 17 -20 -17 -73 -2 -91 25 -17 26 -56 32
-73 11 -18 -21 -78 -9 -97 19 -18 27 -47 31 -69 9 -34 -35 -146 -12 -146 30 0
7 -12 23 -26 34 -37 29 -94 28 -128 -4z m-26 -105 c0 -6 11 -22 25 -35 18 -19
35 -25 66 -25 35 0 47 6 75 35 30 32 38 35 88 35 45 0 57 -4 66 -20 11 -21 54
-28 65 -10 12 20 71 11 99 -15 30 -28 49 -31 68 -11 17 18 70 3 103 -29 20
-21 28 -23 51 -15 35 14 81 4 94 -21 16 -28 46 -42 69 -29 26 13 79 -9 95 -41
10 -20 19 -24 56 -24 52 0 77 -12 94 -46 8 -17 20 -24 42 -25 49 -1 88 -22
104 -57 12 -25 21 -32 45 -32 43 -1 73 -21 90 -60 12 -30 19 -35 46 -35 30 0
94 -41 82 -54 -12 -12 28 -55 54 -59 16 -2 -653 -5 -1486 -6 -1344 -1 -1512 1
-1501 14 7 8 23 15 36 15 27 0 54 25 54 50 0 22 55 64 74 57 19 -7 56 20 56
41 0 22 58 57 88 53 27 -3 52 15 52 38 0 23 62 55 90 46 22 -7 60 17 60 40 0
6 15 18 33 27 24 12 38 13 56 4 21 -9 27 -6 50 21 32 39 75 57 101 43 24 -13
45 -5 64 24 18 28 67 40 102 24 24 -11 29 -9 49 14 25 29 88 47 99 29 11 -17
54 -13 68 7 20 28 72 35 107 14 30 -16 31 -16 53 6 17 17 34 22 70 22 27 0 48
-5 48 -10z m1720 -1225 l0 -625 -810 0 -810 0 0 625 0 625 810 0 810 0 0 -625z
m-2296 495 l31 0 -24 -19 c-20 -15 -22 -23 -16 -51 l7 -34 -26 18 c-25 16 -29
16 -51 2 -33 -22 -35 -21 -25 14 7 25 5 33 -16 49 l-25 20 33 3 c27 3 34 8 42
38 l10 35 14 -38 c13 -32 19 -37 46 -37z m-629 30 c6 -26 11 -30 38 -30 l32
-1 -23 -19 c-19 -16 -22 -25 -17 -51 l7 -31 -26 17 c-24 16 -28 16 -51 1 -33
-22 -36 -21 -23 15 6 16 9 31 7 33 -2 1 -15 10 -29 19 l-24 17 36 0 c32 0 37
3 43 30 4 17 10 30 15 30 5 0 11 -13 15 -30z m238 -30 l32 -1 -27 -20 c-23
-17 -26 -24 -17 -46 12 -33 4 -41 -19 -20 -10 10 -22 17 -27 17 -5 0 -17 -7
-27 -17 -23 -21 -31 -13 -19 20 9 22 6 29 -17 46 l-27 20 33 1 c28 0 35 5 44
32 l12 33 13 -33 c11 -27 18 -32 46 -32z m199 0 l32 0 -24 -17 c-14 -9 -27
-18 -29 -19 -2 -2 1 -17 7 -33 13 -35 10 -37 -23 -15 -22 14 -26 14 -51 -2
l-26 -18 7 32 c5 27 3 36 -17 52 l-23 19 32 1 c26 0 33 5 43 33 l11 32 14 -32
c12 -28 19 -33 47 -33z m389 0 l30 0 -26 -23 c-23 -19 -25 -26 -16 -50 12 -31
6 -34 -21 -10 -18 16 -21 16 -49 -1 l-31 -18 7 32 c6 28 3 36 -16 51 l-24 19
32 0 c26 0 33 5 43 33 l12 32 14 -32 c11 -27 20 -33 45 -33z m153 30 c5 -26
10 -30 38 -30 l33 -1 -23 -19 c-19 -16 -22 -25 -17 -51 l7 -31 -26 17 c-24 16
-28 16 -51 1 -33 -22 -36 -21 -23 15 6 16 9 31 7 33 -2 1 -15 10 -29 19 l-24
17 33 0 c27 0 35 5 44 30 6 17 14 30 18 30 4 0 9 -13 13 -30z m-1296 -2762
c82 -191 221 -327 447 -440 126 -63 243 -106 547 -197 363 -109 445 -143 565
-232 l52 -39 75 54 c91 65 200 112 416 177 490 148 674 220 818 317 139 95
242 217 304 360 l33 77 5 1334 c4 1107 7 1331 18 1318 10 -12 11 -21 3 -36
-19 -35 -13 -88 13 -118 21 -25 31 -28 78 -27 54 1 55 1 84 -44 16 -26 27 -57
25 -70 -3 -27 15 -52 38 -52 24 0 51 -55 45 -89 -6 -29 15 -61 40 -61 20 0 46
-63 34 -83 -13 -24 -1 -55 23 -62 29 -9 53 -69 39 -95 -13 -23 0 -54 29 -69
22 -12 35 -69 20 -87 -15 -19 -3 -61 20 -69 22 -7 38 -72 22 -88 -17 -17 -13
-55 7 -69 26 -18 37 -81 17 -98 -21 -17 -19 -47 5 -67 25 -21 26 -74 4 -109
-16 -24 -16 -27 5 -54 27 -37 27 -81 1 -105 -24 -21 -26 -48 -5 -65 23 -19 20
-87 -5 -100 -22 -12 -26 -41 -9 -68 8 -12 9 -36 5 -65 -7 -43 -9 -47 -36 -47
-16 0 -41 -11 -57 -24 -23 -20 -28 -32 -28 -71 0 -41 4 -51 33 -75 33 -27 33
-28 22 -71 -8 -27 -24 -54 -43 -70 -29 -24 -30 -29 -20 -52 16 -34 -3 -83 -38
-101 -20 -10 -24 -19 -24 -56 0 -53 -12 -77 -46 -94 -17 -8 -24 -20 -25 -42
-1 -49 -22 -88 -57 -104 -26 -12 -32 -21 -32 -45 0 -36 -29 -85 -50 -85 -26 0
-57 -39 -50 -61 8 -23 -28 -69 -53 -69 -23 0 -52 -31 -52 -55 0 -36 -37 -75
-70 -75 -31 0 -56 -30 -47 -54 7 -18 -46 -56 -76 -56 -29 0 -47 -18 -47 -46 0
-27 -53 -69 -76 -60 -24 9 -54 -12 -54 -37 0 -27 -54 -63 -88 -58 -27 3 -52
-15 -52 -38 0 -9 -22 -28 -49 -43 -41 -24 -50 -26 -55 -13 -3 9 -22 23 -42 31
-70 29 -134 -14 -134 -91 0 -39 -2 -41 -45 -57 -37 -14 -51 -15 -72 -5 -23 10
-28 9 -52 -19 -30 -36 -72 -49 -102 -34 -25 14 -56 4 -64 -19 -7 -22 -72 -38
-88 -22 -17 17 -55 13 -69 -7 -18 -26 -78 -35 -102 -17 -27 20 -43 19 -63 -5
-22 -25 -71 -26 -112 -3 -29 17 -30 17 -54 -5 -29 -28 -78 -29 -102 -2 -21 24
-48 26 -65 5 -19 -23 -87 -20 -100 5 -11 21 -54 28 -65 10 -12 -20 -71 -11
-100 16 -20 19 -33 24 -49 18 -47 -16 -90 -9 -119 20 -20 20 -33 26 -45 20
-40 -18 -82 -8 -111 26 -26 32 -31 33 -54 23 -22 -10 -35 -9 -77 9 -46 19 -50
23 -50 55 0 73 -66 117 -133 90 -19 -8 -37 -20 -41 -25 -10 -16 -96 36 -96 58
0 25 -26 43 -51 37 -22 -6 -95 34 -83 46 3 3 1 15 -6 26 -7 15 -20 21 -44 21
-34 0 -78 35 -82 66 -4 25 -25 44 -49 44 -35 0 -75 37 -75 70 0 31 -30 56 -54
47 -17 -7 -59 50 -61 81 -1 25 -20 42 -47 42 -23 0 -56 49 -56 84 1 29 -15 46
-42 46 -21 0 -55 59 -51 88 3 27 -15 52 -38 52 -23 0 -54 61 -46 92 7 26 -15
58 -39 58 -20 0 -46 63 -34 83 13 24 1 55 -23 62 -29 9 -53 69 -39 95 12 23 0
54 -28 69 -10 5 -23 31 -30 57 -12 45 -12 48 13 74 18 18 25 37 25 64 0 50
-13 72 -59 95 -33 17 -39 26 -44 62 -4 29 -1 49 9 63 19 28 18 43 -6 63 -25
21 -26 74 -4 109 16 24 16 27 -5 54 -26 36 -27 74 -1 107 24 31 25 46 5 63
-22 18 -19 82 5 103 21 18 27 52 10 62 -20 12 -11 71 16 100 19 20 24 33 18
49 -16 46 -9 90 19 118 23 23 26 31 17 54 -15 37 -3 81 25 100 29 19 38 40 25
64 -12 23 14 90 35 90 20 0 37 35 29 64 -7 30 15 74 47 89 18 10 24 21 25 47
1 47 30 100 53 100 26 0 44 26 38 51 -4 15 4 36 23 64 25 36 33 41 58 37 69
-10 125 56 105 123 -8 24 -7 37 1 45 8 8 12 -330 16 -1322 l5 -1333 33 -77z
m213 2622 c10 -26 16 -30 47 -30 l37 -1 -29 -23 c-26 -22 -28 -27 -18 -55 12
-33 3 -41 -18 -16 -16 19 -35 19 -65 -1 l-25 -16 11 32 c11 30 9 34 -17 56
l-29 23 37 1 c32 0 37 3 43 30 4 17 9 30 11 30 3 0 10 -13 15 -30z m239 -30
c35 0 38 -10 9 -28 -17 -11 -20 -19 -14 -49 l6 -35 -28 20 c-28 20 -29 20 -52
1 -29 -24 -35 -20 -21 15 9 24 6 30 -18 51 l-27 24 37 1 c33 0 37 3 44 33 l7
32 14 -32 c11 -27 19 -33 43 -33z m199 0 l36 -1 -28 -23 c-25 -20 -27 -25 -17
-51 14 -36 8 -40 -21 -16 -23 19 -24 19 -52 -1 l-29 -21 7 33 c7 30 4 37 -21
57 l-29 23 38 0 c25 0 39 5 42 15 16 49 18 50 28 18 9 -29 14 -33 46 -33z
m152 30 c10 -26 16 -30 47 -30 l37 -1 -29 -23 c-26 -22 -28 -27 -18 -55 12
-33 3 -41 -18 -16 -16 19 -35 19 -65 -1 l-25 -16 11 32 c11 30 9 34 -17 56
l-29 23 38 1 c34 0 38 3 44 30 3 17 7 30 10 30 2 0 9 -13 14 -30z m239 -30
c35 0 38 -10 9 -28 -17 -11 -20 -19 -14 -49 l6 -35 -28 20 c-28 20 -29 20 -52
1 -29 -24 -35 -20 -21 15 9 24 6 30 -18 51 l-27 24 37 1 c33 0 37 3 44 33 l7
32 14 -32 c11 -27 19 -33 43 -33z m199 0 l36 -1 -27 -24 c-24 -21 -27 -27 -18
-51 14 -35 8 -39 -21 -15 -23 19 -24 19 -52 -1 l-29 -21 7 33 c7 30 4 37 -21
57 l-29 23 38 0 c34 0 39 4 50 33 l11 32 9 -32 c9 -29 14 -33 46 -33z m155 25
c5 -21 12 -25 44 -25 l37 -1 -29 -23 c-26 -22 -28 -26 -17 -56 l11 -32 -25 16
c-30 20 -49 20 -65 1 -21 -25 -30 -17 -18 16 10 28 8 33 -18 55 l-29 23 37 1
c32 0 39 4 44 25 3 14 10 25 14 25 4 0 11 -11 14 -25z m-1294 -795 l0 -570
-60 0 -60 0 0 570 0 570 60 0 60 0 0 -570z m250 0 l0 -570 -60 0 -60 0 0 570
0 570 60 0 60 0 0 -570z m250 0 l0 -570 -60 0 -60 0 0 570 0 570 60 0 60 0 0
-570z m250 0 l0 -570 -60 0 -60 0 0 570 0 570 60 0 60 0 0 -570z m250 0 l0
-570 -60 0 -60 0 0 570 0 570 60 0 60 0 0 -570z m250 0 l0 -570 -60 0 -60 0 0
570 0 570 60 0 60 0 0 -570z m250 0 l0 -570 -60 0 -60 0 0 570 0 570 60 0 60
0 0 -570z m0 -1641 c0 -577 -3 -1048 -7 -1045 -5 2 -39 25 -78 50 -91 61 -216
108 -524 201 -306 91 -413 130 -551 201 -230 117 -371 269 -439 471 -20 60
-21 81 -21 618 l0 555 810 0 810 0 0 -1051z m1638 479 l-3 -573 -33 -77 c-85
-197 -221 -326 -466 -444 -105 -50 -332 -134 -362 -134 -12 0 -14 139 -14 900
l0 900 440 0 441 0 -3 -572z m-1178 237 c0 -11 -12 -15 -50 -15 -38 0 -50 4
-50 15 0 11 12 15 50 15 38 0 50 -4 50 -15z m-180 -45 c0 -5 -13 -10 -30 -10
-16 0 -30 5 -30 10 0 6 14 10 30 10 17 0 30 -4 30 -10z m170 -30 c0 -29 -4
-40 -15 -40 -10 0 -15 10 -15 30 0 17 -4 30 -10 30 -5 0 -10 -13 -10 -30 0
-20 -5 -30 -15 -30 -11 0 -15 11 -15 40 l0 40 40 0 40 0 0 -40z m150 30 c0 -5
-13 -10 -30 -10 -16 0 -30 5 -30 10 0 6 14 10 30 10 17 0 30 -4 30 -10z m-330
-50 c0 -15 -7 -20 -25 -20 -18 0 -25 5 -25 20 0 15 7 20 25 20 18 0 25 -5 25
-20z m320 0 c0 -15 -7 -20 -25 -20 -18 0 -25 5 -25 20 0 15 7 20 25 20 18 0
25 -5 25 -20z m-322 -47 c-10 -2 -28 -2 -40 0 -13 2 -5 4 17 4 22 1 32 -1 23
-4z m170 0 c-16 -2 -40 -2 -55 0 -16 2 -3 4 27 4 30 0 43 -2 28 -4z m150 0
c-10 -2 -28 -2 -40 0 -13 2 -5 4 17 4 22 1 32 -1 23 -4z m-70 -40 c-60 -2
-156 -2 -215 0 -60 1 -11 3 107 3 118 0 167 -2 108 -3z m102 -33 c0 -6 -77
-10 -210 -10 -133 0 -210 4 -210 10 0 6 77 10 210 10 133 0 210 -4 210 -10z
m-20 -45 c0 -13 -28 -15 -190 -15 -162 0 -190 2 -190 15 0 13 28 15 190 15
162 0 190 -2 190 -15z m-30 -229 l0 -195 26 -20 27 -21 -42 0 -41 0 0 41 c0
34 -7 47 -38 80 -35 35 -44 39 -90 39 -42 0 -56 -5 -80 -27 -38 -36 -52 -64
-52 -102 0 -29 -2 -31 -37 -31 l-36 0 21 23 c21 22 22 32 22 215 l0 192 160 0
160 0 0 -194z m-200 -166 c-18 -18 -20 -33 -20 -145 l0 -125 -95 0 c-95 0 -95
0 -95 25 0 24 2 25 70 25 l70 0 0 45 0 45 -70 0 c-63 0 -70 2 -70 20 0 18 7
20 70 20 l70 0 0 40 c0 30 7 48 31 75 31 35 32 35 46 16 12 -18 11 -23 -7 -41z
m54 45 c-5 -12 -10 -13 -20 -4 -19 15 -18 19 6 19 13 0 18 -5 14 -15z m71 -21
c19 -20 25 -38 25 -70 l0 -44 70 0 c63 0 70 -2 70 -20 0 -18 -7 -20 -70 -20
l-70 0 0 -45 0 -45 70 0 c68 0 70 -1 70 -25 0 -25 0 -25 -95 -25 l-95 0 0 129
c0 105 -3 133 -16 146 -17 16 -13 45 6 45 6 0 22 -12 35 -26z m-215 -204 c0
-17 -7 -20 -50 -20 -43 0 -50 3 -50 20 0 17 7 20 50 20 43 0 50 -3 50 -20z
m360 0 c0 -17 -7 -20 -50 -20 -43 0 -50 3 -50 20 0 17 7 20 50 20 43 0 50 -3
50 -20z"/>
<path d="M2659 5134 c-28 -8 -49 -22 -55 -35 -7 -16 -31 -28 -94 -45 -117 -34
-220 -86 -264 -134 -33 -36 -45 -60 -30 -60 3 0 49 19 102 42 53 22 135 53
181 69 l84 27 18 -21 c17 -21 16 -22 -24 -46 l-41 -24 37 -32 37 -32 -25 -23
c-23 -21 -62 -116 -53 -126 11 -11 138 58 166 91 26 29 36 34 58 29 18 -5 34
0 54 15 38 27 41 27 34 -8 -11 -54 72 -98 106 -56 20 24 23 9 4 -20 -16 -25
-16 -27 3 -53 27 -36 48 -38 78 -8 30 30 35 32 35 11 0 -8 11 -22 25 -31 21
-14 31 -15 51 -6 34 16 50 55 36 87 -7 16 -8 25 -2 25 20 0 34 48 22 74 -9 21
-8 27 14 41 21 13 30 14 58 4 31 -11 33 -14 24 -40 -5 -15 -8 -44 -6 -66 3
-37 4 -38 38 -34 19 1 42 7 52 12 12 6 26 -1 56 -31 31 -31 47 -40 75 -40 l35
0 -5 45 c-5 44 -5 44 36 61 38 15 55 34 30 34 -6 0 -24 14 -39 30 l-28 30 30
30 c34 35 40 36 79 13 19 -11 29 -26 29 -40 0 -14 6 -23 15 -23 8 0 15 5 15
11 0 12 69 8 104 -6 13 -6 17 -4 14 5 -2 7 -52 42 -111 78 -88 54 -107 69
-107 89 0 24 0 24 -98 22 -80 -2 -102 1 -125 16 -23 15 -40 17 -115 11 -255
-19 -307 -19 -321 -2 -16 19 -64 21 -110 5 -29 -10 -35 -9 -59 13 -36 33 -67
39 -123 22z m95 -29 c18 -14 13 -15 -55 -14 -71 1 -73 1 -44 14 39 18 75 18
99 0z m615 -39 c21 -12 15 -13 -51 -8 -51 3 -92 -1 -129 -11 -47 -14 -79 -15
-218 -7 -257 15 -388 -4 -576 -80 -44 -17 -86 -35 -94 -38 -9 -3 -12 -1 -7 7
12 18 113 66 206 96 84 28 90 28 412 34 179 3 330 9 334 14 12 12 97 7 123 -7z
m-104 -51 c-18 -15 -38 -23 -50 -20 -11 3 -33 5 -50 5 l-30 1 25 10 c25 11 92
26 120 28 9 0 2 -10 -15 -24z m312 19 c-3 -3 -12 -4 -19 -1 -8 3 -5 6 6 6 11
1 17 -2 13 -5z m-847 -19 c0 -2 -9 -19 -20 -37 -11 -18 -20 -39 -20 -45 0 -27
21 -11 51 37 l31 50 84 0 c46 0 84 -4 84 -8 0 -10 -45 -52 -80 -75 -13 -10
-31 -31 -40 -49 -21 -44 -43 -55 -80 -41 -29 11 -31 10 -46 -23 -22 -46 -124
-107 -124 -74 0 16 69 88 91 95 29 9 23 25 -10 25 -16 0 -39 8 -51 18 l-22 18
51 24 c28 13 51 26 51 30 0 3 -14 11 -32 18 -48 18 -23 33 65 41 9 0 17 -1 17
-4z m662 -25 c25 -35 38 -38 38 -10 0 13 7 20 19 20 14 0 18 -5 14 -20 -4 -14
0 -20 11 -20 9 0 16 7 16 16 0 13 7 15 32 10 46 -9 55 -22 33 -46 -10 -11 -24
-20 -32 -20 -21 0 -15 -23 18 -63 l30 -37 -24 -9 c-17 -7 -26 -20 -31 -45 -4
-20 -4 -41 -1 -46 9 -14 -1 -12 -35 5 -16 8 -37 28 -47 45 -20 35 -19 35 -66
15 -20 -8 -42 -15 -48 -15 -14 0 -3 66 17 97 22 34 17 43 -23 43 -21 0 -48 9
-61 18 l-24 18 41 37 c53 47 91 50 123 7z m238 -10 c22 -11 40 -23 40 -25 0
-5 -79 32 -89 41 -11 10 14 2 49 -16z m86 -58 c-4 -3 -14 2 -24 12 -16 18 -16
18 6 6 13 -6 21 -14 18 -18z"/>
<path d="M2828 5003 c-33 -8 -18 -23 22 -23 29 0 40 4 40 15 0 15 -25 18 -62
8z"/>
<path d="M2736 4922 c-7 -12 32 -48 41 -38 8 8 -8 38 -24 43 -6 2 -14 0 -17
-5z"/>
<path d="M3300 4960 c0 -5 11 -10 25 -10 14 0 25 5 25 10 0 6 -11 10 -25 10
-14 0 -25 -4 -25 -10z"/>
<path d="M3408 4944 c-7 -6 38 -123 53 -138 22 -24 20 10 -5 74 -26 66 -35 78
-48 64z"/>
<path d="M3485 4880 c-7 -12 2 -30 16 -30 12 0 12 27 0 35 -5 3 -12 1 -16 -5z"/>
<path d="M3361 4841 c-22 -14 -4 -33 20 -21 11 6 17 15 14 21 -8 11 -16 11
-34 0z"/>
<path d="M3331 4328 l-22 -67 -72 -3 -71 -3 57 -39 c62 -43 61 -41 30 -130 -7
-21 -13 -40 -13 -43 0 -2 25 14 56 36 31 22 62 38 68 34 6 -4 32 -22 58 -41
l47 -33 -19 57 c-11 31 -20 63 -20 70 0 7 24 29 53 51 l52 38 -69 5 -69 5 -22
65 -22 65 -22 -67z"/>
<path d="M3770 4106 c-19 -7 -68 -31 -108 -54 -41 -23 -80 -42 -87 -42 -8 0
-17 -5 -20 -10 -4 -6 -15 -8 -25 -5 -15 5 -23 -4 -41 -42 -13 -26 -23 -55 -23
-65 -1 -9 -12 -28 -25 -42 -20 -21 -22 -28 -11 -41 7 -8 21 -15 31 -15 11 0
19 -6 19 -14 0 -22 16 -27 45 -14 19 8 28 9 37 0 8 -8 21 -4 48 18 20 16 48
32 63 35 l27 7 -14 -45 c-16 -53 -72 -127 -96 -127 -9 0 -25 -9 -34 -19 -23
-25 -9 -33 54 -33 57 0 84 15 165 94 l61 58 32 -33 33 -34 -25 -17 c-41 -27
-34 -45 17 -39 23 2 50 6 60 8 9 2 15 0 12 -5 -7 -11 31 -20 83 -20 40 0 48 5
102 62 l58 61 32 -26 c17 -15 44 -27 58 -27 l27 -1 -27 -15 c-16 -8 -28 -19
-28 -24 0 -6 -1 -13 -2 -17 -6 -15 97 -1 115 15 20 18 19 38 -7 112 -9 25 -21
81 -28 125 -16 100 -49 147 -132 189 -62 32 -117 37 -228 21 -48 -6 -65 -4
-107 14 -57 24 -64 25 -111 7z m270 -391 c0 -54 0 -55 -30 -55 -27 0 -30 3
-30 33 0 17 -3 42 -6 55 -6 20 -3 22 30 22 l36 0 0 -55z"/>
<path d="M1211 3924 c-67 -60 -128 -186 -156 -320 -10 -49 -33 -112 -61 -167
-89 -173 -114 -361 -79 -602 8 -55 15 -104 15 -108 0 -18 22 7 44 51 32 64 46
136 53 272 l6 115 26 -24 27 -25 -18 -35 c-20 -40 -22 -68 -8 -106 8 -20 6
-32 -5 -48 -43 -62 -38 -156 11 -208 l27 -28 -25 -10 c-63 -24 -79 -112 -29
-162 16 -16 37 -29 46 -29 10 0 15 -5 12 -12 -64 -152 -74 -196 -57 -257 13
-50 66 -115 73 -91 3 8 15 59 27 113 17 78 24 96 35 87 10 -8 16 -2 28 29 24
59 40 167 34 222 -4 33 -1 58 8 76 19 36 19 126 0 163 -8 16 -29 38 -46 51
l-31 22 30 23 c16 13 33 35 36 49 4 14 11 23 16 20 14 -9 23 81 17 164 -7 85
-50 227 -97 321 -21 42 -31 77 -31 108 -1 58 40 170 74 204 38 38 75 178 47
178 -5 0 -28 -16 -49 -36z m16 -66 c-17 -48 -34 -74 -42 -66 -7 6 40 98 50 98
2 0 -1 -15 -8 -32z m-85 -153 c-9 -26 -18 -42 -20 -37 -3 9 26 82 33 82 2 0
-4 -20 -13 -45z m11 -260 c46 -103 77 -198 83 -255 l4 -45 -14 51 c-8 29 -33
92 -56 142 -22 49 -40 99 -40 111 0 11 -4 21 -10 21 -22 0 -8 -64 33 -157 56
-126 84 -234 50 -191 -13 16 -99 231 -109 271 -3 16 -13 31 -20 34 -8 3 -14
12 -14 20 0 9 -6 13 -15 9 -12 -4 -11 3 5 34 11 22 21 52 21 67 1 17 3 21 6
11 7 -28 23 -21 24 10 1 21 3 18 9 -13 4 -22 23 -76 43 -120z m-127 -52 c-4
-27 -11 -129 -16 -228 -9 -159 -27 -322 -35 -313 -10 10 16 449 28 490 8 26
13 49 10 52 -6 6 6 46 14 46 3 0 3 -21 -1 -47z m74 -207 l0 -49 -24 23 c-33
30 -39 65 -31 163 l8 82 23 -85 c13 -47 24 -107 24 -134z m-137 -8 c-6 -237
-14 -324 -26 -302 -19 34 -15 279 7 362 10 39 19 72 20 72 2 0 1 -60 -1 -132z
m197 -34 c0 -2 -8 -4 -18 -4 -15 0 -17 6 -14 37 l5 36 13 -33 c8 -18 14 -34
14 -36z m90 -46 c0 -21 -3 -29 -10 -22 -5 5 -7 19 -4 32 9 31 14 27 14 -10z
m-48 -22 c24 -39 19 -98 -13 -132 l-22 -23 -25 19 c-13 11 -30 20 -37 20 -17
0 -25 23 -25 67 0 25 8 43 29 63 35 35 64 31 93 -14z m-62 -178 c11 -18 20
-49 20 -68 0 -39 -32 -100 -53 -100 -8 0 -22 9 -33 21 -27 30 -27 128 0 158
27 29 43 26 66 -11z m82 -88 c22 -42 23 -88 3 -135 -20 -48 -35 -51 -76 -14
l-34 32 33 33 c30 30 37 53 35 112 -1 22 19 7 39 -28z m-261 -1 c-8 -22 -10
-22 -16 -5 -5 11 -3 21 6 26 19 12 21 7 10 -21z m171 -166 c39 -35 13 -123
-36 -123 -60 1 -82 73 -38 123 19 22 50 22 74 0z m77 -85 l-1 -53 -9 44 c-8
40 -5 61 7 61 2 0 4 -24 3 -52z m-34 -61 c14 -22 13 -29 -11 -88 -15 -35 -36
-104 -49 -154 l-22 -90 -17 34 c-28 53 -18 129 31 234 23 48 44 87 47 87 3 0
12 -10 21 -23z"/>
<path d="M1077 2774 c-11 -12 3 -24 29 -24 15 0 24 6 24 15 0 15 -40 21 -53 9z"/>
<path d="M4852 3743 c-34 -71 -68 -155 -77 -188 -17 -67 -20 -174 -5 -224 8
-30 7 -36 -15 -52 -13 -11 -31 -39 -41 -64 -16 -42 -16 -48 0 -89 9 -24 25
-51 36 -61 19 -17 19 -18 -5 -64 -26 -48 -32 -99 -15 -132 7 -13 7 -46 0 -105
-6 -48 -8 -89 -4 -93 3 -3 28 18 55 48 28 29 52 51 55 49 2 -3 -3 -21 -11 -41
-8 -20 -15 -46 -15 -57 0 -12 -7 -35 -16 -51 -10 -21 -18 -81 -24 -197 -5 -91
-7 -168 -5 -170 2 -3 24 7 49 22 78 45 116 115 116 209 0 31 8 68 21 94 16 33
20 57 17 93 -5 45 -3 48 13 40 22 -12 99 -13 99 -2 0 5 -11 37 -25 71 -23 55
-24 67 -14 98 16 49 3 98 -37 143 -19 21 -30 41 -25 44 5 4 14 -1 19 -11 9
-15 13 -12 31 18 54 87 78 247 46 309 -9 16 -27 33 -40 36 -27 7 -38 5 -122
-19 l-53 -14 -6 35 c-17 88 16 208 77 284 l29 37 -16 66 c-9 36 -20 65 -24 65
-3 0 -34 -57 -68 -127z m49 -37 c-62 -89 -87 -193 -71 -292 15 -89 -18 -144
-39 -66 -25 89 -3 198 72 356 50 106 52 108 61 79 7 -26 4 -38 -23 -77z m144
-330 c35 -52 28 -143 -16 -247 l-21 -49 -49 65 c-113 148 -129 233 -43 223 41
-5 68 -48 68 -108 0 -35 4 -50 13 -50 22 0 17 99 -8 139 -16 27 -18 36 -7 42
23 15 47 10 63 -15z m-187 -118 c11 -24 40 -72 66 -107 29 -38 44 -67 38 -73
-5 -5 -47 -10 -93 -12 -81 -3 -85 -2 -110 25 -59 63 -36 159 46 195 17 7 31
13 32 14 1 0 11 -19 21 -42z m110 -229 c23 -14 62 -83 62 -109 0 -8 -9 -32
-20 -55 -66 -136 -284 -80 -266 68 5 47 11 54 31 37 11 -9 12 -17 5 -30 -14
-26 -12 -63 4 -85 12 -16 16 -17 30 -6 17 15 21 67 6 91 -5 9 -5 19 2 27 8 10
8 21 -1 40 -14 30 -12 33 31 42 38 8 83 0 116 -20z m-164 -48 c-6 -6 -24 19
-24 34 1 6 7 1 15 -9 8 -11 12 -22 9 -25z m6 -92 c0 -11 -4 -17 -10 -14 -5 3
-10 15 -10 26 0 11 5 17 10 14 6 -3 10 -15 10 -26z m-20 -118 c-5 -9 -16 -25
-25 -36 -16 -19 -16 -19 -11 14 3 18 6 40 6 47 0 11 4 12 19 2 14 -8 17 -17
11 -27z m242 -6 c10 -25 13 -45 8 -45 -20 0 -66 22 -77 37 -11 14 -8 19 15 34
15 10 29 18 32 18 3 1 13 -19 22 -44z m-149 -104 c-4 -26 -3 -33 8 -29 9 3 16
25 19 59 4 46 7 51 16 34 25 -43 26 -83 5 -131 -21 -47 -21 -47 -42 -28 -49
45 -64 127 -32 174 l17 24 8 -34 c4 -19 5 -50 1 -69z m-49 -77 c3 -9 6 -53 6
-99 0 -46 4 -86 9 -89 14 -9 21 20 21 86 0 60 0 61 20 43 23 -21 25 -51 9
-106 -13 -41 -59 -103 -90 -120 -19 -10 -19 -7 -14 113 3 68 8 138 11 156 5
34 18 42 28 16z"/>
<path d="M2007 2871 c-20 -10 -34 -21 -30 -24 3 -4 -6 -7 -20 -7 -15 0 -27 -4
-27 -10 0 -5 12 -10 28 -10 15 0 33 -4 41 -9 9 -6 24 -6 38 0 18 7 28 4 44
-12 35 -35 60 -39 119 -18 74 26 97 24 131 -10 31 -32 38 -61 14 -61 -8 0 -15
4 -15 9 0 16 -57 30 -99 24 -24 -3 -46 -1 -55 6 -11 9 -12 7 -9 -12 3 -14 -3
-29 -16 -41 -18 -16 -21 -31 -21 -91 0 -82 -14 -111 -48 -101 -14 5 -25 21
-32 47 -16 58 -44 79 -104 79 -92 0 -144 -53 -185 -184 -14 -45 -21 -95 -21
-148 0 -74 50 -411 69 -468 l9 -25 11 28 c6 16 11 34 11 42 0 21 32 23 66 3
25 -15 30 -23 26 -43 -5 -30 -10 -31 -28 -7 -12 16 -12 16 -11 -3 1 -13 -4
-20 -15 -19 -10 1 -16 -2 -13 -6 8 -14 -15 -23 -28 -11 -18 14 -88 17 -113 3
-12 -6 -25 -7 -30 -2 -5 5 -10 -5 -11 -26 -1 -25 -10 -41 -33 -60 -24 -21 -28
-29 -19 -40 16 -19 48 -18 71 3 11 10 37 19 58 20 l39 3 -6 -49 c-5 -46 -4
-49 21 -55 14 -3 26 -11 26 -17 0 -5 12 4 28 20 47 52 49 56 41 79 -6 17 -5
22 7 22 9 0 32 16 51 35 20 20 49 37 69 41 l35 6 -7 -41 c-6 -37 -4 -43 13
-47 15 -4 19 -12 15 -30 -6 -34 -34 -47 -67 -32 -22 10 -29 8 -53 -15 -16 -15
-40 -27 -54 -27 -30 0 -56 -26 -41 -41 5 -5 133 -12 301 -16 l292 -6 -11 31
c-6 17 -20 34 -32 38 -30 9 -56 45 -57 76 0 17 -10 34 -27 47 -14 12 -23 24
-19 28 3 4 12 1 18 -5 18 -18 88 -15 110 5 10 9 18 12 18 6 0 -6 15 -9 34 -6
27 2 36 -1 40 -15 4 -11 18 -24 31 -30 14 -6 25 -20 26 -29 0 -11 3 -13 6 -5
6 15 45 16 59 2 7 -7 10 0 10 23 -2 36 -28 84 -58 105 -10 7 -18 18 -18 24 0
7 6 6 15 -2 21 -17 45 4 45 39 0 14 12 85 26 156 46 234 47 399 3 488 -39 77
-114 137 -172 137 -36 0 -75 -36 -87 -80 -6 -22 -15 -42 -20 -45 -13 -8 -13
-4 7 76 14 60 14 76 3 124 -31 130 -113 183 -217 140 -51 -21 -68 -19 -106 15
-40 34 -39 34 -90 11z m93 -26 c27 -29 61 -32 116 -9 68 28 134 2 170 -68 18
-35 18 -48 -1 -48 -8 0 -17 11 -21 25 -14 58 -87 81 -161 50 -52 -22 -86 -19
-114 11 -14 15 -31 23 -41 21 -10 -3 -15 -1 -12 4 3 5 -3 12 -13 16 -18 7 -13
9 48 22 3 0 16 -10 29 -24z m220 -130 c8 -7 33 -15 55 -17 36 -3 40 -6 43 -32
3 -26 2 -28 -12 -17 -18 15 -46 8 -46 -12 0 -7 -11 -23 -25 -35 -28 -24 -30
-41 -13 -88 15 -41 -2 -83 -56 -142 -36 -39 -158 -112 -187 -112 -11 0 -8 86
7 157 5 28 3 33 -24 47 -18 9 -31 26 -35 43 -3 15 -19 44 -36 63 -36 42 -40
37 -7 -9 14 -19 28 -46 31 -62 4 -19 18 -35 37 -45 24 -13 29 -20 23 -37 -4
-12 -10 -57 -12 -99 -5 -75 -6 -78 -39 -99 -18 -11 -44 -34 -58 -51 l-24 -31
-11 52 c-6 29 -11 64 -12 79 -1 15 -5 38 -10 52 -13 38 1 -95 16 -155 8 -29
10 -67 6 -90 -6 -35 -8 -27 -28 80 -13 66 -24 131 -26 145 -4 22 -4 21 -6 -5
0 -16 11 -94 25 -172 15 -81 23 -150 19 -160 -10 -23 -38 88 -61 242 -9 61
-18 112 -21 115 -17 16 46 -342 66 -377 8 -15 10 -14 22 4 12 19 14 20 36 6
13 -8 23 -22 23 -29 0 -8 9 -14 20 -14 11 0 20 -5 20 -11 0 -6 9 -9 20 -6 11
3 20 1 20 -4 0 -5 6 -9 14 -9 22 0 30 -19 11 -26 -9 -4 -30 1 -48 10 -18 8
-50 20 -72 26 -57 15 -81 40 -99 101 -20 71 -46 222 -46 270 0 22 -4 39 -8 39
-9 0 -8 -12 8 -137 10 -72 27 -153 46 -215 4 -13 0 -18 -14 -18 -30 0 -57 166
-57 357 0 83 -2 150 -4 147 -2 -2 -8 -26 -12 -54 -10 -65 4 -238 32 -389 13
-69 19 -126 14 -137 -5 -13 -19 45 -42 171 -50 279 -40 415 38 530 32 46 69
65 126 65 57 0 78 -17 94 -74 11 -39 39 -60 68 -51 24 7 31 33 31 117 0 57 3
70 20 80 11 7 20 18 20 25 0 25 112 23 140 -2z m83 -89 c8 -21 -19 -139 -43
-186 -39 -77 -98 -129 -195 -175 -102 -47 -157 -91 -186 -146 -21 -42 -25
-109 -8 -141 6 -11 8 -22 6 -25 -3 -3 -13 9 -21 26 -36 68 -7 169 64 220 22
16 80 50 128 74 48 25 104 63 124 84 46 48 87 135 101 219 11 63 20 78 30 50z
m193 -38 c123 -84 145 -243 80 -576 -14 -72 -26 -145 -26 -161 0 -34 -18 -50
-31 -30 -12 18 -3 91 28 214 26 106 42 301 27 328 -6 10 -9 -26 -9 -96 -1 -87
-7 -137 -28 -222 -15 -60 -31 -135 -35 -165 -8 -50 -10 -52 -17 -27 -5 20 0
60 19 130 41 156 61 357 35 357 -7 0 -8 -11 -4 -29 10 -45 -12 -215 -43 -326
-35 -130 -42 -89 -8 53 31 134 43 253 27 278 -10 16 -11 13 -7 -16 11 -64 -35
-330 -56 -330 -11 0 -11 -3 11 108 11 54 22 131 25 172 l5 75 -11 -75 c-6 -41
-19 -113 -28 -160 l-18 -85 -1 57 c-1 51 9 153 25 246 3 23 2 32 -5 27 -6 -3
-11 -21 -11 -39 0 -49 -11 -96 -23 -96 -6 0 -8 29 -5 83 4 46 2 71 -2 57 -4
-14 -8 -46 -9 -71 -1 -32 -6 -49 -16 -53 -12 -4 -15 4 -15 42 0 26 4 64 9 85
5 20 5 37 1 37 -10 0 -20 -62 -21 -135 0 -54 -15 -165 -18 -139 0 5 -10 19
-20 31 -16 16 -20 41 -24 144 -3 68 -8 135 -12 149 -5 19 1 34 24 63 16 21 33
51 36 68 14 65 78 76 151 27z m-238 -33 c-10 -45 -12 -47 -24 -30 -20 27 -17
52 8 69 12 9 23 14 24 13 2 -1 -2 -24 -8 -52z m30 -244 c5 -111 0 -132 -37
-153 -42 -23 -67 -79 -80 -177 -14 -107 -14 -104 9 -91 15 8 20 8 20 -1 0 -18
30 10 31 30 1 9 4 3 8 -14 10 -49 -21 -70 -99 -69 -120 3 -110 -1 -110 49 0
50 10 57 32 23 15 -22 15 -22 25 -3 6 12 7 38 3 65 l-7 45 -2 -55 c-1 -48 -3
-53 -15 -38 -9 13 -11 31 -5 65 11 68 11 123 -1 123 -6 0 -10 -33 -10 -80 0
-64 -3 -80 -15 -80 -10 0 -15 10 -15 31 0 28 -2 30 -16 18 -15 -12 -16 -10
-10 21 l8 35 -26 -30 c-14 -16 -25 -27 -26 -24 0 6 31 96 46 133 5 13 4 17 -4
13 -6 -4 -20 -38 -32 -75 -27 -80 -45 -105 -35 -47 10 54 43 130 66 151 27 25
63 6 90 -48 17 -34 22 -61 23 -130 1 -47 4 -90 9 -94 4 -4 7 2 7 14 0 15 6 22
20 22 18 0 19 2 5 33 -7 17 -23 64 -34 103 -24 82 -61 128 -98 121 -56 -11
-27 17 59 57 73 34 104 55 141 96 26 29 47 57 47 63 0 7 4 7 12 -1 7 -7 14
-51 16 -101z m107 -154 c-8 -20 -15 -66 -15 -104 0 -49 -3 -64 -11 -56 -16 16
-8 175 10 197 23 27 33 3 16 -37z m-440 -10 c-13 -24 -29 -67 -36 -97 -13 -63
-25 -82 -39 -60 -26 41 -3 118 53 177 40 43 53 32 22 -20z m467 -45 c-2 -43 1
-95 6 -115 14 -49 -4 -59 -23 -13 -17 41 -19 115 -4 169 16 59 24 43 21 -41z
m-107 24 c20 -30 30 -111 21 -171 -6 -38 -10 -44 -21 -35 -8 7 -19 9 -25 5 -5
-3 -10 1 -10 9 0 23 -52 17 -58 -7 -4 -14 -7 -16 -13 -5 -6 10 -12 9 -24 -7
-16 -20 -16 -20 -11 0 2 11 7 47 11 80 11 100 44 155 90 155 15 0 31 -10 40
-24z m-181 -175 c-9 -11 -24 15 -23 42 l1 32 12 -35 c8 -19 12 -37 10 -39z
m-145 -23 c1 -15 -3 -30 -9 -33 -6 -4 -7 6 -4 25 4 19 2 30 -5 30 -6 0 -11 -4
-11 -8 0 -5 -7 -17 -15 -28 -13 -17 -14 -16 -9 21 l5 40 -25 -30 c-23 -27 -26
-28 -26 -9 0 26 18 44 46 44 13 0 26 6 30 12 9 15 21 -20 23 -64z m413 30 c11
-18 23 -25 33 -22 11 5 15 -1 15 -19 0 -14 5 -29 10 -32 20 -12 10 -35 -15
-35 -14 0 -25 6 -25 13 0 8 -4 7 -10 -3 -9 -13 -11 -13 -20 0 -8 13 -10 12
-10 -2 0 -22 -13 -23 -30 -3 -7 8 -21 15 -31 15 -14 0 -19 7 -19 28 1 25 2 26
15 9 13 -18 14 -16 24 20 6 21 11 43 11 49 0 22 35 9 52 -18z m-383 -37 c1
-16 -3 -21 -8 -15 -9 9 -15 48 -11 69 3 16 19 -28 19 -54z m261 -42 c0 -13 7
-19 24 -19 30 0 56 -24 56 -52 0 -19 -2 -18 -21 6 -29 37 -53 30 -60 -19 l-6
-40 -2 39 c-1 35 -3 38 -26 34 -31 -6 -35 18 -4 27 17 6 19 12 13 38 -6 28 -5
30 10 18 9 -7 16 -22 16 -32z m-454 3 c-4 -3 -14 2 -24 12 -16 18 -16 18 6 6
13 -6 21 -14 18 -18z m192 -27 c-7 -36 -35 -42 -83 -16 -25 13 -44 26 -41 28
2 2 21 -5 41 -16 45 -24 81 -13 72 21 -4 15 -3 18 4 11 6 -6 9 -19 7 -28z
m-78 -42 c30 -16 45 -16 71 -2 22 11 135 19 157 11 17 -6 42 -55 42 -82 0 -14
-6 -20 -21 -20 -12 0 -28 -8 -35 -17 -11 -15 -15 -16 -23 -4 -6 10 -19 12 -42
6 -19 -3 -52 -7 -74 -8 -42 -2 -41 -3 -33 53 3 24 1 25 -47 25 -56 0 -73 8
-85 39 -13 34 7 50 39 29 14 -9 37 -23 51 -30z m521 17 c41 -23 6 -70 -53 -70
-37 0 -38 1 -38 34 0 24 5 36 18 39 31 8 53 7 73 -3z m-205 -66 c-11 -29 -30
0 -21 33 7 27 7 28 17 6 6 -12 8 -30 4 -39z m80 24 c15 -30 15 -32 -2 -45 -10
-7 -25 -13 -34 -13 -14 0 -15 6 -6 45 6 25 14 45 18 45 4 0 15 -14 24 -32z
m-485 -12 l29 -25 -27 -21 c-35 -27 -66 -34 -92 -20 -29 15 -26 34 10 64 38
32 44 32 80 2z m-134 6 c7 -5 9 -19 4 -42 -6 -31 -11 -35 -40 -38 -67 -7 -107
21 -79 55 23 28 88 42 115 25z m817 -33 c14 -17 26 -40 26 -51 0 -17 -4 -19
-27 -13 -27 6 -83 42 -83 52 0 6 43 42 52 43 3 0 18 -14 32 -31z m-945 -53
c10 -12 8 -17 -9 -26 -29 -16 -45 -2 -24 21 20 23 19 22 33 5z m201 -41 c0
-25 -10 -39 -36 -53 -30 -16 -54 12 -47 53 8 39 18 45 54 32 19 -8 29 -18 29
-32z"/>
<path d="M2250 2699 c-12 -8 -10 -9 7 -4 12 3 25 1 29 -6 4 -8 3 -9 -4 -5 -7
4 -12 2 -12 -3 0 -6 7 -11 15 -11 8 0 15 6 15 14 0 8 6 17 13 19 6 3 -1 6 -18
6 -16 0 -37 -4 -45 -10z"/>
<path d="M1895 2572 c-10 -2 -28 -10 -40 -18 -25 -16 -60 -74 -46 -74 6 0 11
4 11 9 0 5 12 24 27 41 25 30 30 32 74 28 27 -3 46 -2 44 2 -6 10 -46 17 -70
12z"/>
<path d="M1905 2420 c-16 -7 -17 -9 -3 -9 9 -1 20 4 23 9 7 11 7 11 -20 0z"/>
<path d="M2166 2408 c3 -4 12 -8 20 -8 8 0 14 4 14 8 0 4 -9 8 -19 8 -11 0
-17 -4 -15 -8z"/>
<path d="M1971 2290 c-3 -79 -4 -78 -30 25 -10 37 -10 36 -4 -15 13 -125 46
-132 40 -9 l-3 74 -3 -75z"/>
<path d="M2484 2544 c-18 -15 -18 -15 3 -5 45 22 89 13 122 -24 40 -46 40 -64
0 -31 -34 29 -68 40 -96 33 -11 -3 -6 -5 12 -6 32 -1 62 -18 108 -59 15 -15
27 -20 27 -13 0 24 -33 82 -58 101 -30 24 -90 26 -118 4z"/>
<path d="M2566 2444 c-4 -11 -14 -15 -31 -12 -13 3 -22 1 -19 -3 8 -14 40 -10
54 6 7 9 11 18 8 21 -3 3 -8 -3 -12 -12z"/>
<path d="M2332 2318 c-7 -7 -12 -19 -12 -27 1 -12 4 -11 12 4 6 11 16 23 22
27 7 5 8 8 1 8 -6 0 -16 -5 -23 -12z"/>
<path d="M2241 2233 c-1 -8 -8 -10 -18 -6 -16 6 -16 5 -4 -11 16 -19 37 -7 28
16 -4 9 -6 9 -6 1z"/>
<path d="M2330 2033 c-24 -12 -24 -13 -3 -13 12 0 25 5 28 11 11 16 2 17 -25
2z"/>
<path d="M4280 2625 c5 -14 10 -36 10 -47 0 -20 -4 -21 -69 -15 -45 4 -72 2
-80 -6 -15 -15 -14 -67 1 -67 6 0 9 -2 7 -4 -2 -2 -26 0 -53 5 -32 6 -53 6
-60 -1 -15 -15 13 -40 48 -40 24 0 35 -7 49 -31 22 -40 22 -59 -3 -59 -11 0
-40 -10 -64 -22 -45 -21 -46 -21 -67 -2 -26 24 -49 67 -49 92 0 17 -70 92 -86
92 -4 0 -4 -9 -1 -20 4 -16 0 -20 -18 -20 -33 0 -42 -20 -14 -28 l24 -6 -25
-6 c-14 -3 -26 -14 -28 -23 -2 -12 1 -15 12 -11 10 4 20 -5 31 -32 8 -21 38
-62 66 -92 33 -34 48 -57 42 -63 -11 -11 -63 5 -63 20 0 15 -60 32 -79 22 -14
-8 -13 -11 9 -20 15 -6 18 -10 9 -10 -15 -1 -49 -31 -49 -44 0 -4 14 -4 32 0
l31 6 -21 -21 c-24 -24 -27 -39 -13 -61 7 -11 11 -10 20 5 10 18 12 18 25 2
17 -22 75 -24 142 -3 42 13 50 13 64 0 9 -8 22 -15 28 -15 6 0 14 -9 17 -21
11 -33 64 -59 125 -60 48 -2 44 -3 -27 -9 -83 -7 -133 -28 -133 -54 0 -8 -11
-27 -24 -43 -24 -29 -44 -103 -27 -103 5 0 23 16 40 35 34 39 43 43 40 18 -2
-29 0 -43 9 -42 19 3 23 -2 12 -16 -7 -8 -27 -15 -44 -15 -22 0 -40 -8 -56
-25 l-23 -25 100 0 c98 0 100 0 112 26 7 16 9 44 5 70 -4 29 -3 44 5 44 6 0 8
-6 5 -13 -3 -8 0 -27 6 -42 8 -22 13 -26 19 -16 5 8 14 10 20 6 7 -4 18 -1 26
5 12 10 15 10 15 -1 1 -11 3 -10 13 2 18 24 40 13 24 -12 -8 -13 -23 -19 -49
-19 -41 0 -64 -26 -54 -58 5 -16 14 -17 64 -11 31 4 67 8 80 8 15 1 29 12 40
33 9 17 29 45 45 61 15 17 27 35 27 42 0 24 -29 38 -70 32 -25 -3 -43 0 -49 7
-8 9 -5 12 11 12 14 -1 29 10 43 31 15 25 27 32 52 33 23 0 39 9 58 32 23 28
27 39 23 80 -5 45 -23 79 -79 150 -26 32 -38 120 -19 143 16 19 44 19 60 0 7
-8 13 -36 14 -61 1 -50 20 -72 50 -61 20 8 21 40 2 56 -8 6 -19 32 -25 57 -9
36 -18 48 -43 58 -65 28 -124 -22 -121 -100 2 -46 23 -94 77 -169 42 -58 46
-97 14 -119 -28 -20 -48 -20 -62 0 -7 8 -34 28 -61 42 -34 18 -51 34 -53 50
-2 12 1 22 7 22 7 0 9 14 5 40 -5 33 -4 40 10 40 9 0 17 6 17 13 1 6 3 32 4
56 2 24 8 48 14 54 6 6 11 39 11 74 l0 63 38 0 37 1 -25 20 c-16 14 -24 29
-22 44 3 19 0 22 -17 18 -18 -5 -21 -1 -21 27 0 32 -1 33 -20 15 -18 -16 -21
-16 -55 5 l-35 22 10 -27z m38 -17 c10 -10 17 -10 32 0 18 11 20 10 20 -17 0
-25 3 -28 21 -24 16 4 20 2 17 -8 -3 -8 1 -22 10 -31 14 -16 13 -18 -5 -18
-11 0 -26 7 -33 15 -7 8 -17 15 -23 15 -5 0 -2 -9 8 -20 26 -28 11 -25 -21 5
-22 20 -23 24 -8 20 19 -7 19 -6 0 9 -11 9 -23 16 -27 16 -4 0 -9 11 -11 25
-6 27 1 32 20 13z"/>
<path d="M3290 2310 c-21 -21 -27 -66 -9 -72 7 -2 7 -12 0 -31 -6 -16 -11 -39
-11 -53 0 -22 3 -24 55 -24 54 0 55 0 55 30 0 17 -4 30 -10 30 -14 0 -13 47 1
52 16 5 -7 74 -27 82 -25 9 -33 7 -54 -14z"/>
<path d="M3448 2313 c-20 -24 -29 -73 -13 -73 8 0 10 -9 7 -25 -2 -14 -9 -25
-14 -25 -5 0 -8 -12 -6 -27 3 -26 7 -28 55 -31 l51 -3 -2 84 c-2 88 -13 117
-46 117 -9 0 -24 -8 -32 -17z"/>
<path d="M1585 5291 c-48 -25 -82 -72 -90 -126 -5 -32 -1 -50 22 -94 63 -121
198 -134 277 -27 32 43 29 130 -6 184 -48 72 -133 98 -203 63z m91 -57 c35
-23 74 -94 74 -134 0 -74 -72 -95 -128 -37 -33 34 -62 93 -62 127 0 28 35 60
65 60 14 0 37 -7 51 -16z"/>
<path d="M4394 5211 c-71 -32 -114 -112 -100 -185 12 -64 84 -129 163 -146 30
-7 34 -5 65 41 23 34 38 48 50 45 15 -3 47 20 37 27 -70 51 -109 77 -117 77
-16 0 -20 -23 -9 -42 8 -12 5 -25 -14 -52 -28 -42 -37 -43 -73 -15 -21 17 -26
29 -26 66 0 107 102 178 175 122 23 -19 26 -28 23 -65 -3 -39 5 -54 27 -54 2
0 15 21 30 46 27 46 27 81 1 71 -9 -4 -21 5 -31 19 -20 30 -88 64 -130 64 -16
0 -48 -9 -71 -19z"/>
<path d="M4735 5030 c-4 -6 -1 -17 5 -25 10 -12 4 -24 -28 -62 -74 -88 -118
-126 -140 -119 -11 4 -24 1 -30 -6 -7 -10 12 -34 80 -97 l89 -84 50 23 c27 13
48 28 46 34 -2 6 -25 11 -51 11 -38 1 -52 6 -76 30 l-29 30 29 34 c29 34 29
34 55 17 22 -14 25 -22 20 -46 -10 -46 13 -46 59 -1 23 23 49 40 57 37 12 -4
78 61 68 67 -2 1 -43 39 -91 85 -88 82 -101 91 -113 72z m129 -183 c-5 -13
-10 -15 -19 -7 -9 8 -15 8 -20 0 -9 -15 -30 -12 -56 9 l-24 19 30 31 29 31 34
-33 c22 -23 31 -39 26 -50z"/>
<path d="M1176 4984 c-40 -37 -46 -47 -36 -59 9 -11 16 -12 25 -5 14 12 17 6
30 -57 7 -37 2 -39 -58 -22 -30 8 -36 13 -28 23 8 10 7 17 -4 26 -14 11 -24 6
-68 -36 -28 -27 -53 -50 -56 -51 -2 -2 2 -9 9 -18 8 -10 17 -12 29 -5 29 15
181 -27 216 -61 24 -24 28 -32 19 -47 -13 -20 -8 -42 9 -42 7 1 36 23 65 51
44 40 52 52 42 64 -9 11 -16 12 -31 2 -16 -10 -23 -7 -49 18 -24 25 -33 46
-46 118 -13 71 -14 90 -3 103 10 12 10 18 -2 29 -12 11 -21 7 -63 -31z"/>
<path d="M5007 4774 c-4 -4 -4 -17 -1 -30 5 -18 -6 -32 -63 -79 -100 -84 -110
-90 -128 -75 -15 12 -35 6 -35 -11 0 -6 34 -52 76 -104 l77 -94 46 18 c32 13
46 24 46 37 0 16 -7 18 -41 16 -38 -3 -45 0 -70 33 l-28 37 34 29 c124 103
139 113 166 99 48 -26 46 3 -7 68 -49 61 -59 69 -72 56z"/>
<path d="M854 4638 c-37 -46 -74 -91 -82 -101 -14 -16 -13 -20 18 -52 19 -19
37 -35 41 -35 14 0 19 33 8 47 -9 10 -9 20 0 39 l11 26 45 -36 c25 -20 65 -52
89 -72 34 -27 44 -41 43 -61 -3 -44 18 -36 67 23 37 45 44 60 35 71 -10 11
-14 11 -29 -2 -16 -14 -25 -10 -108 59 -87 70 -90 74 -73 90 12 11 27 15 44
11 41 -11 45 15 7 47 -19 15 -37 28 -41 28 -4 0 -38 -37 -75 -82z"/>
<path d="M5232 4487 c-6 -7 -9 -22 -6 -33 4 -15 -14 -31 -93 -81 -83 -52 -100
-60 -113 -49 -16 14 -40 11 -40 -4 0 -5 30 -55 66 -110 61 -92 69 -101 91 -95
14 3 38 9 54 12 16 3 29 9 29 12 0 17 -27 31 -57 31 -26 0 -37 7 -57 37 -28
40 -25 48 23 76 30 18 30 17 47 -9 14 -21 15 -30 6 -45 -10 -16 -7 -49 4 -49
3 0 28 16 56 35 36 24 54 31 59 23 5 -8 20 -3 48 16 l40 28 -66 101 c-79 123
-77 121 -91 104z m66 -156 c25 -44 20 -53 -30 -56 -21 -2 -33 4 -48 25 l-20
28 33 21 c17 11 35 21 38 21 3 0 15 -18 27 -39z"/>
<path d="M656 4356 c-20 -35 -36 -66 -36 -69 0 -14 34 -15 44 -1 11 15 23 10
114 -42 89 -51 101 -62 99 -84 -4 -49 27 -32 63 34 28 54 32 68 22 78 -11 11
-16 10 -27 -6 -13 -18 -19 -16 -115 39 -90 51 -101 61 -96 80 5 20 -8 35 -29
35 -2 0 -19 -29 -39 -64z"/>
<path d="M555 4190 c-3 -5 -3 -15 0 -21 4 -6 -2 -20 -13 -32 -97 -103 -13
-277 133 -277 91 0 155 62 155 150 0 56 -33 118 -54 100 -12 -9 -12 -17 1 -50
20 -50 5 -93 -40 -116 -25 -14 -36 -14 -74 -3 -56 15 -113 67 -113 102 0 42
40 80 86 81 60 2 57 28 -7 54 -59 25 -65 26 -74 12z"/>
<path d="M5345 4106 c-25 -26 -28 -35 -42 -131 -9 -65 -26 -80 -57 -50 -25 25
-20 70 9 93 31 24 25 56 -9 46 -76 -24 -119 -66 -81 -80 8 -4 15 -15 15 -26 0
-28 26 -74 52 -92 12 -9 39 -16 59 -16 53 0 85 41 94 117 10 97 13 105 38 101
17 -2 23 -11 25 -39 2 -30 -2 -41 -23 -57 -16 -13 -23 -26 -19 -36 8 -20 2
-21 73 10 l61 27 -20 32 c-11 18 -20 40 -20 49 0 10 -13 31 -29 47 -38 38 -91
40 -126 5z"/>
<path d="M1369 1214 c-10 -12 -9 -18 4 -31 14 -15 9 -24 -60 -115 -42 -54 -79
-98 -82 -98 -4 0 -12 5 -18 11 -14 14 -35 2 -31 -16 2 -7 30 -34 63 -60 54
-42 61 -44 72 -29 10 14 10 19 -4 29 -16 12 -15 16 11 54 16 23 34 41 41 41
21 0 36 -27 30 -53 -11 -44 20 -41 56 6 18 23 36 46 40 51 5 5 15 4 24 -4 17
-14 28 -4 56 48 12 21 10 26 -21 50 -175 137 -167 132 -181 116z m112 -125
c27 -19 37 -47 22 -62 -3 -4 -12 -2 -19 4 -9 7 -18 6 -33 -3 -17 -11 -23 -10
-37 4 -15 15 -15 19 5 47 12 17 25 31 28 31 3 0 18 -9 34 -21z"/>
<path d="M4504 1129 c-21 -41 -23 -53 -12 -60 18 -12 28 -11 28 1 0 25 23 4
78 -67 75 -101 77 -104 62 -113 -18 -11 -4 -44 15 -36 8 3 35 20 60 38 48 36
55 65 14 60 -21 -2 -37 15 -109 113 -47 63 -91 114 -97 115 -7 0 -24 -23 -39
-51z"/>
<path d="M4300 998 c-67 -45 -59 -132 13 -159 33 -11 34 -14 30 -53 -7 -56 31
-96 89 -96 55 0 108 51 108 104 0 44 -34 83 -79 92 -27 6 -29 8 -24 45 11 78
-66 115 -137 67z m68 -40 c18 -18 15 -58 -4 -58 -23 0 -54 19 -54 33 0 16 20
37 35 37 6 0 16 -5 23 -12z m109 -159 c20 -17 16 -38 -12 -51 -21 -9 -28 -8
-45 7 -11 10 -20 29 -20 43 0 22 3 24 32 18 17 -3 37 -11 45 -17z"/>
<path d="M1627 978 c-46 -13 -114 -86 -123 -135 -27 -144 108 -248 236 -183
52 27 92 87 98 148 11 116 -95 202 -211 170z m121 -68 c27 -26 28 -68 3 -118
-44 -85 -115 -119 -161 -77 -26 23 -26 67 1 122 40 83 111 116 157 73z"/>
<path d="M4093 877 l-83 -41 0 -53 c0 -45 3 -53 19 -53 12 0 23 11 29 30 10
29 69 65 83 51 3 -3 13 -64 22 -135 9 -71 19 -131 21 -133 12 -13 46 20 46 45
0 50 -39 315 -47 322 -4 5 -45 -11 -90 -33z"/>
<path d="M1896 854 c-4 -10 0 -21 11 -29 16 -12 15 -19 -21 -100 -21 -48 -40
-103 -43 -120 -11 -69 63 -135 152 -135 61 0 87 27 139 144 39 86 39 87 70 81
51 -11 57 -27 36 -103 -10 -37 -23 -86 -30 -109 -9 -36 -15 -43 -35 -43 -18 0
-25 -6 -25 -18 0 -25 118 -61 131 -40 13 20 11 26 -11 33 -22 7 -21 13 9 113
l16 53 55 -125 c51 -117 75 -150 89 -127 4 5 22 67 40 138 18 70 36 131 40
135 10 11 81 -11 81 -24 0 -7 -5 -63 -11 -125 -11 -109 -13 -113 -35 -113 -17
0 -24 -6 -24 -20 0 -11 3 -20 8 -20 4 0 47 -5 95 -10 108 -13 157 -2 203 44
81 81 60 222 -39 266 -23 10 -76 22 -117 26 -41 4 -112 17 -157 29 -46 12 -85
20 -88 17 -11 -12 -4 -42 10 -42 19 0 19 -22 -3 -94 l-18 -60 -48 110 c-27 60
-55 114 -63 121 -8 6 -34 15 -56 19 -23 3 -66 17 -96 30 -29 13 -57 21 -62 18
-14 -8 -11 -26 8 -39 16 -12 14 -19 -21 -96 -20 -46 -45 -92 -53 -101 -23 -26
-69 -23 -98 6 -28 28 -26 44 27 164 28 64 34 72 57 70 17 -2 26 3 29 13 3 14
-35 36 -134 76 -6 2 -14 -3 -18 -13z m875 -313 c54 -55 33 -168 -37 -197 -19
-8 -45 -12 -57 -9 l-23 6 12 112 c7 62 13 113 13 115 1 1 15 2 32 2 20 0 40
-10 60 -29z"/>
<path d="M3821 745 c-23 -21 -41 -43 -41 -50 0 -17 25 -26 38 -13 7 7 23 -25
52 -98 37 -96 40 -110 26 -120 -18 -12 -21 -30 -7 -38 4 -3 38 6 73 20 54 21
65 28 61 44 -3 12 -13 19 -26 17 -18 -2 -28 17 -71 130 -28 72 -54 134 -58
138 -3 4 -25 -10 -47 -30z"/>
<path d="M3345 633 c-11 -2 -44 -9 -72 -14 -42 -8 -53 -14 -53 -30 0 -14 7
-19 25 -19 14 0 25 -1 25 -3 0 -2 9 -53 20 -113 24 -135 24 -134 0 -134 -13 0
-20 -7 -20 -20 0 -24 9 -25 123 -4 49 9 101 25 119 38 98 66 95 225 -6 287
-30 18 -107 24 -161 12z m89 -53 c63 -23 89 -142 43 -195 -15 -18 -33 -27 -57
-28 l-35 -2 -19 109 c-15 91 -16 110 -5 117 18 11 42 11 73 -1z"/>
<path d="M2927 603 c-14 -14 -6 -32 16 -35 21 -3 22 -7 25 -130 2 -123 2 -128
-18 -128 -13 0 -20 -7 -20 -20 0 -20 5 -20 132 -18 l131 3 18 53 18 52 -25 0
c-13 0 -24 -4 -24 -10 0 -26 -41 -50 -85 -50 l-45 0 0 50 0 50 36 0 c27 0 37
-5 41 -20 3 -11 14 -20 24 -20 17 0 19 8 19 65 0 53 3 65 16 65 14 0 15 7 10
38 -3 20 -6 43 -6 50 0 9 -32 12 -128 12 -71 0 -132 -3 -135 -7z m223 -63 c8
-16 8 -20 -4 -20 -8 0 -16 -10 -18 -22 -2 -18 -10 -24 -39 -26 l-37 -3 -4 45
-3 46 47 0 c37 0 50 -4 58 -20z"/>
</g>
</svg>
